<svg width="42" height="42" viewBox="0 0 42 42" fill="none" xmlns="http://www.w3.org/2000/svg">
<path d="M14.9795 24.5908L15.3089 25.4518L14.3618 25.2628L14.9795 24.5908Z" fill="white"/>
<path d="M22.8645 26.0405C22.6998 25.8935 22.4734 25.7885 22.1439 25.7255C21.8351 25.6625 21.5675 25.6835 21.3616 25.7675C21.1557 25.8515 21.0322 25.9985 20.991 26.2295C20.9498 26.4395 21.0116 26.6285 21.1763 26.7965C21.341 26.9435 21.5881 27.0485 21.8969 27.1115C22.2057 27.1745 22.4734 27.1535 22.6792 27.0695C22.8851 26.9855 23.0087 26.8385 23.0498 26.6075C23.091 26.3765 23.0292 26.2085 22.8645 26.0405ZM22.8645 26.0405C22.6998 25.8935 22.4734 25.7885 22.1439 25.7255C21.8351 25.6625 21.5675 25.6835 21.3616 25.7675C21.1557 25.8515 21.0322 25.9985 20.991 26.2295C20.9498 26.4395 21.0116 26.6285 21.1763 26.7965C21.341 26.9435 21.5881 27.0485 21.8969 27.1115C22.2057 27.1745 22.4734 27.1535 22.6792 27.0695C22.8851 26.9855 23.0087 26.8385 23.0498 26.6075C23.091 26.3765 23.0292 26.2085 22.8645 26.0405ZM19.3439 21.3575C15.5969 17.3675 15.5557 12.6005 17.9234 8.25352L14.7939 7.68652L11.2939 27.8885L27.1675 30.7445L28.2175 24.7175C28.2175 24.6965 23.091 25.3475 19.3439 21.3575ZM15.6587 26.2715L15.4939 25.8305L14.0939 25.5785L13.7645 25.9355L12.941 25.7885L14.6292 24.0875L15.5145 24.2555L16.5234 26.4395L15.6587 26.2715ZM20.0028 25.4105L18.8704 25.2005L18.5822 26.7965L17.7792 26.6495L18.0469 25.0535L16.9145 24.8435L16.9763 24.5075L20.0439 25.0535L20.0028 25.4105ZM23.8528 26.7545C23.791 27.1115 23.5645 27.3425 23.1322 27.4475C22.8234 27.5525 22.391 27.5525 21.8557 27.4475C21.3204 27.3425 20.9087 27.1955 20.6616 27.0065C20.3116 26.7545 20.1675 26.4395 20.2292 26.1035C20.291 25.7465 20.5381 25.5155 20.9498 25.4105C21.2587 25.3055 21.691 25.3055 22.2263 25.4105C22.7616 25.5155 23.1734 25.6625 23.4204 25.8725C23.7704 26.0825 23.9145 26.3975 23.8528 26.7545ZM26.941 28.3085L24.2851 27.8255L24.6145 25.8725L25.3969 26.0195L25.1292 27.6155L27.0028 27.9515L26.941 28.3085ZM22.1645 25.7255C21.8557 25.6625 21.5881 25.6835 21.3822 25.7675C21.1763 25.8515 21.0528 25.9985 21.0116 26.2295C20.9704 26.4395 21.0322 26.6285 21.1969 26.7965C21.3616 26.9435 21.6087 27.0485 21.9175 27.1115C22.2263 27.1745 22.4939 27.1535 22.6998 27.0695C22.9057 26.9855 23.0292 26.8385 23.0704 26.6075C23.1116 26.3975 23.0498 26.2085 22.8851 26.0405C22.6998 25.8935 22.4734 25.7885 22.1645 25.7255Z" fill="white"/>
<path d="M28.3822 23.7507C28.3822 23.7507 23.8939 23.6877 21.6498 19.1517C18.5616 12.8727 24.9851 9.5127 24.9851 9.5127L30.688 10.5417L28.3822 23.7507Z" fill="white"/>
<path d="M24.1615 1.34417C13.538 -0.566829 3.3674 6.69917 1.51446 17.5352C-0.359071 28.3712 6.76446 38.7452 17.388 40.6562C28.0115 42.5672 38.1615 35.3012 40.035 24.4652C40.2409 23.2892 40.3439 22.1342 40.3439 20.9792C40.3233 11.4872 33.6321 3.04517 24.1615 1.34417ZM38.7792 24.2342C37.0292 34.3772 27.5174 41.1812 17.5939 39.3752C7.64975 37.5902 0.999752 27.8882 2.74975 17.7452C4.49975 7.60217 14.0115 0.798171 23.9556 2.60417C33.8792 4.38917 40.5292 14.0912 38.7792 24.2342Z" fill="white"/>
<path d="M8.12349 24.7595L7.73232 23.3105L3.75879 24.4235C3.79997 24.5705 3.86173 24.7175 3.90291 24.8645C3.94408 25.0115 3.96467 25.1585 3.98526 25.3265L5.73526 24.8435C6.02349 25.9145 6.45585 26.6075 7.48526 26.3345C8.12349 26.1245 8.32938 25.5785 8.12349 24.7595ZM7.11467 25.4105C6.76467 25.5155 6.39408 25.4525 6.1882 25.0955C6.12644 24.9905 6.08526 24.8435 6.04408 24.7175L7.64997 24.2765L7.75291 24.6545C7.83526 24.9485 7.5882 25.2845 7.11467 25.4105Z" fill="white"/>
<path d="M9.35861 27.6994L8.72038 26.5654L5.1792 28.6864C5.26155 28.8124 5.36449 28.9384 5.42626 29.0644C5.50861 29.1904 5.57038 29.3374 5.63214 29.4844L7.29979 28.4974L7.32038 28.5394C7.19685 28.7704 7.03214 29.0644 6.94979 29.2324L6.2292 30.5134C6.33214 30.6604 6.43508 30.8074 6.53802 30.9754C6.64096 31.1434 6.70273 31.3114 6.78508 31.4794L6.99096 31.0804C7.29979 30.4714 7.58802 29.8624 7.89685 29.2744C8.28802 29.7154 8.80273 29.8414 9.29685 29.5474C9.64685 29.3374 9.79096 29.0434 9.77038 28.6444C9.7292 28.3294 9.48214 27.9514 9.35861 27.6994ZM8.94685 28.5814C8.8439 28.6654 8.78214 28.7284 8.69979 28.7704C8.16449 29.0854 7.75273 28.9594 7.48508 28.3924L8.86449 27.5524C9.07038 27.8674 9.33802 28.2454 8.94685 28.5814Z" fill="white"/>
<path d="M12.2201 31.1008C11.0878 30.0928 9.81128 30.2608 9.00834 31.1638C8.10246 32.2138 8.26717 33.4108 9.27599 34.2928C10.3878 35.2798 11.726 35.1118 12.4878 34.2088C13.1054 33.5158 13.5172 32.2558 12.2201 31.1008ZM11.8083 33.4738C11.1495 34.2508 10.223 34.6708 9.54364 34.0408C8.86422 33.4318 9.15246 32.5498 9.66717 31.9618C10.5525 30.9328 11.3348 30.7858 11.973 31.3318C12.6319 31.9618 12.323 32.8858 11.8083 33.4738Z" fill="white"/>
<path d="M14.3201 37.3803C14.1966 37.3173 14.0525 37.2333 13.9289 37.1703C13.7848 37.1073 13.6407 37.0653 13.4966 37.0233L14.9583 33.5583C14.5672 33.3903 14.1966 33.2643 13.9083 33.1803C13.9495 33.0963 14.0113 33.0333 14.0319 32.9493C14.0731 32.8653 14.0731 32.7813 14.1142 32.6973L16.9554 33.9573C16.9142 34.0413 16.8525 34.1043 16.8319 34.1883C16.7907 34.2723 16.7701 34.3563 16.7495 34.4403C16.4407 34.2513 16.1319 34.0833 15.8025 33.9363L14.3201 37.3803Z" fill="white"/>
<path d="M19.7967 34.4615C19.7761 34.5455 19.735 34.6295 19.735 34.7135C19.7144 34.7975 19.7144 34.9025 19.7144 34.9865C19.3644 34.8815 18.9732 34.7555 18.3556 34.6715L18.1497 35.9735L18.7673 36.0785C19.035 36.1205 19.282 36.1415 19.5085 36.1415C19.4879 36.2255 19.4467 36.3095 19.4261 36.3935C19.4056 36.4775 19.4056 36.5615 19.4056 36.6665C19.1997 36.6035 18.9526 36.5405 18.685 36.4775L18.0673 36.3725L17.8203 37.9055C18.4173 38.0105 18.8291 38.0525 19.1997 38.0525C19.1791 38.1365 19.1379 38.2205 19.1173 38.3045C19.0967 38.3885 19.0967 38.4725 19.0967 38.5775L16.832 38.1785L17.5114 34.0625L19.7967 34.4615Z" fill="white"/>
<path d="M24.0999 37.6954L24.0176 38.2414C23.6676 38.4724 23.2558 38.5774 22.8646 38.6194C21.5881 38.7454 20.5381 38.0314 20.4146 36.7924C20.2705 35.1964 21.2793 34.3774 22.5764 34.2304C22.9676 34.1884 23.4617 34.2514 23.8323 34.4194C23.7911 34.6294 23.7911 34.8394 23.7499 35.0704H23.6675C23.4205 34.7554 23.0087 34.5664 22.6175 34.6084C21.6293 34.7134 21.3205 35.7214 21.4028 36.6034C21.5058 37.6534 22.0823 38.3254 22.9881 38.2414C23.3587 38.1994 23.7705 37.9684 24.0176 37.6744L24.0999 37.6954Z" fill="white"/>
<path d="M27.4966 37.2542C27.3525 37.2962 27.2084 37.3382 27.0642 37.4012C26.9201 37.4642 26.7966 37.5272 26.6525 37.5902L25.3142 34.0832C24.9231 34.2512 24.5731 34.4192 24.3054 34.5872C24.2848 34.5032 24.2642 34.4192 24.2436 34.3352C24.2231 34.2512 24.1613 34.1882 24.1201 34.1042L27.0025 32.9492C27.0231 33.0332 27.0436 33.1172 27.0642 33.2012C27.1054 33.2852 27.1466 33.3692 27.1878 33.4322C26.8378 33.5162 26.4878 33.6212 26.1584 33.7472L27.4966 37.2542Z" fill="white"/>
<path d="M29.3911 31.248C29.4323 31.332 29.4735 31.416 29.5146 31.479C29.5558 31.542 29.6382 31.605 29.6793 31.668C29.3499 31.836 28.9999 32.046 28.5058 32.424L29.247 33.495L29.7617 33.117C29.9882 32.949 30.1735 32.802 30.3382 32.634C30.3793 32.718 30.4205 32.802 30.4617 32.865C30.5029 32.928 30.5852 32.991 30.6264 33.054C30.4205 33.159 30.2146 33.285 29.9882 33.453L29.4735 33.831L30.3588 35.112C30.8529 34.755 31.1617 34.482 31.4499 34.23C31.4911 34.314 31.5323 34.398 31.5735 34.461C31.6146 34.524 31.697 34.587 31.7382 34.65L29.8646 35.994L27.5176 32.592L29.3911 31.248Z" fill="white"/>
<path d="M33.8791 28.9171C33.0967 28.2871 32.0673 28.1401 31.2438 29.1481L29.9673 30.7861L33.1791 33.3691L34.229 32.0251C34.9908 31.0381 34.9496 29.7781 33.8791 28.9171ZM33.7761 32.0251L33.4673 32.4241L30.8114 30.2821L31.182 29.8201C31.7173 29.1481 32.3967 29.0011 33.2614 29.7151C34.3732 30.5971 34.2908 31.3741 33.7761 32.0251Z" fill="white"/>
</svg>
