<svg width="37" height="38" viewBox="0 0 37 38" fill="none" xmlns="http://www.w3.org/2000/svg">
<path d="M34.202 14.5822C34.202 5.24381 27.0349 2.2373 18.1787 2.2373C9.3226 2.2373 2.20117 5.24381 2.20117 14.5822C2.20117 23.9206 9.36825 35.6733 18.1787 35.6733C26.9892 35.6733 34.202 23.9206 34.202 14.5822Z" fill="url(#paint0_radial_362_1523)"/>
<path d="M35.6626 14.2637C35.6626 4.05976 27.8564 0.734375 18.2243 0.734375C8.59207 0.734375 0.740234 4.05976 0.740234 14.2637C0.740234 24.4676 8.54642 37.3136 18.2243 37.3136C27.9021 37.3136 35.6626 24.4676 35.6626 14.2637Z" fill="white" stroke="white"/>
<path d="M35.0233 14.3547C35.0233 4.56079 27.4911 1.37207 18.2241 1.37207C8.95709 1.37207 1.4248 4.56079 1.4248 14.3547C1.4248 24.1486 8.95709 36.4935 18.2241 36.4935C27.4911 36.4935 35.0233 24.1942 35.0233 14.3547Z" fill="#EFEFF1"/>
<path d="M34.202 14.4006C34.202 5.06217 27.0349 2.05566 18.1787 2.05566C9.3226 2.05566 2.20117 5.06217 2.20117 14.4006C2.20117 23.739 9.36825 35.4917 18.1787 35.4917C26.9892 35.4917 34.202 23.739 34.202 14.4006Z" fill="url(#paint1_radial_362_1523)"/>
<path d="M7.40527 11.5305C7.63352 11.4849 7.95308 11.4394 8.40958 11.3938C9.00303 11.3483 9.55083 11.3027 10.1443 11.3027C10.6464 11.3027 11.1942 11.3483 11.6964 11.4394C12.1985 11.5305 12.655 11.7127 13.1115 11.986C13.5224 12.2594 13.8876 12.6238 14.1159 13.0793C14.3898 13.6715 14.5267 14.3092 14.5267 14.947C14.5267 15.5392 14.4354 16.0858 14.2072 16.6325C14.0246 17.0424 13.7506 17.4069 13.3854 17.7257C13.0202 17.999 12.655 18.1813 12.1985 18.3179C11.742 18.4546 11.2855 18.5001 10.8747 18.5001C10.6921 18.5001 10.5095 18.5001 10.3269 18.5001C10.1899 18.5001 10.053 18.4546 9.91603 18.4546V21.78C9.68778 21.8255 9.45953 21.8711 9.23128 21.8711C9.04868 21.8711 8.82043 21.9166 8.68348 21.9166C8.27263 21.9166 7.86178 21.8711 7.45092 21.78L7.40527 11.5305ZM9.87038 16.4047C9.96168 16.4502 10.053 16.4502 10.0986 16.4502C10.2356 16.4502 10.3269 16.4502 10.4638 16.4502C11.1942 16.4958 11.7877 15.9947 11.879 15.2659C11.879 15.1748 11.879 15.0836 11.879 14.9925C11.879 14.7648 11.8333 14.4915 11.742 14.2637C11.6507 14.0815 11.5594 13.8993 11.4225 13.8082C11.2855 13.6715 11.1029 13.5804 10.9203 13.5348C10.7377 13.4893 10.5095 13.4893 10.3269 13.4893H10.1443C10.053 13.4893 10.0073 13.4893 9.91603 13.4893L9.87038 16.4047Z" fill="white"/>
<path d="M17.0374 13.7624H14.6179C14.4353 13.0335 14.4353 12.2591 14.6179 11.5303H21.9676C22.0132 11.758 22.0132 11.9403 22.0589 12.1225C22.0589 12.3047 22.1045 12.4869 22.1045 12.6235C22.1045 12.988 22.0589 13.398 21.9676 13.7624H19.5481V21.7797C19.1373 21.8708 18.7264 21.9164 18.2699 21.9164C17.8591 21.9164 17.4026 21.8708 16.9917 21.7797L17.0374 13.7624Z" fill="white"/>
<path d="M26.2132 15.5392C26.6241 15.7214 26.9893 15.858 27.3088 16.0403C27.6284 16.1769 27.9023 16.4047 28.1305 16.6325C28.3588 16.8602 28.5414 17.1791 28.6783 17.498C28.9522 18.3179 28.9066 19.229 28.587 20.0489C28.4044 20.4589 28.1305 20.8233 27.811 21.0967C27.4458 21.4155 26.9893 21.6433 26.5328 21.78C25.985 21.9622 25.3915 22.0077 24.7981 22.0077C24.2503 22.0077 23.7481 21.9622 23.246 21.8711C22.7438 21.78 22.2417 21.5977 21.7852 21.4155C21.8308 21.0511 21.8765 20.6867 21.9678 20.3678C22.0591 20.0034 22.196 19.5934 22.333 19.229C23.0634 19.5934 23.8394 19.7756 24.6155 19.8212C25.0263 19.8212 25.3915 19.7756 25.7567 19.5934C26.0306 19.4567 26.2132 19.1379 26.1676 18.819C26.1676 18.6823 26.1219 18.5457 26.0763 18.409C26.0306 18.3179 25.9393 18.2268 25.848 18.1357C25.7567 18.0446 25.6198 17.999 25.5285 17.9535C25.3915 17.9079 25.3002 17.8624 25.1633 17.8168L24.3416 17.498C24.022 17.3613 23.7025 17.2246 23.3829 17.0424C23.109 16.8602 22.8808 16.678 22.6525 16.4502C22.4699 16.2225 22.2873 15.9492 22.196 15.6303C22.0591 15.2659 22.0134 14.9014 22.0134 14.537C22.0134 14.0815 22.1047 13.6259 22.2873 13.1704C22.4699 12.806 22.6982 12.4416 23.0177 12.1682C23.3373 11.8949 23.7481 11.6672 24.159 11.5305C24.6611 11.3938 25.1176 11.3027 25.6198 11.3027C26.0763 11.3027 26.5784 11.3483 27.0349 11.4394C27.5371 11.5305 28.0392 11.6672 28.4957 11.8494C28.4501 12.1682 28.3588 12.5327 28.2675 12.8515C28.1762 13.216 28.0392 13.5348 27.9023 13.8993C27.674 13.8082 27.3545 13.6715 27.0349 13.5804C26.6241 13.4437 26.2132 13.3982 25.8024 13.3982C25.6654 13.3982 25.5285 13.3982 25.3459 13.4437C25.2089 13.4893 25.072 13.5348 24.9807 13.5804C24.8894 13.6259 24.7981 13.7171 24.7068 13.8537C24.6155 13.9904 24.6155 14.127 24.6155 14.2637C24.6155 14.4915 24.7068 14.7192 24.8894 14.9014C25.072 15.0381 25.3002 15.1748 25.5285 15.2659L26.2132 15.5392Z" fill="white"/>
<path opacity="0.16" d="M31.0521 5.65441C27.8109 2.42014 22.2416 1.41797 18.27 1.41797C9.59647 1.41797 2.65764 4.56114 2.74894 13.9906C2.79459 18.5915 5.21405 24.4679 8.45521 28.7954C10.5095 16.8605 20.8264 9.98196 31.0521 5.65441Z" fill="white"/>
<defs>
<radialGradient id="paint0_radial_362_1523" cx="0" cy="0" r="1" gradientUnits="userSpaceOnUse" gradientTransform="translate(18.2005 2.16671) scale(32.4279 33.8813)">
<stop stop-color="#FFA900"/>
<stop offset="0.517" stop-color="#ED6A00"/>
<stop offset="1" stop-color="#8D190F"/>
</radialGradient>
<radialGradient id="paint1_radial_362_1523" cx="0" cy="0" r="1" gradientUnits="userSpaceOnUse" gradientTransform="translate(18.2005 2.02373) scale(34.7684 34.2705)">
<stop stop-color="#B08BBD"/>
<stop offset="0.517" stop-color="#572478"/>
<stop offset="1" stop-color="#3C1C63"/>
</radialGradient>
</defs>
</svg>
