<svg width="16" height="16" viewBox="0 0 8 16" fill="none" xmlns="http://www.w3.org/2000/svg">
<path d="M1.56359 15.4453V8.30218H0.554704C0.248238 8.30218 0 8.05333 0 7.74747V5.48575C0 5.18112 0.249464 4.93166 0.554704 4.93166H1.56359V3.11309C1.56359 1.39381 2.95802 0 4.67729 0H7.26632C7.57279 0 7.82102 0.248238 7.82102 0.554704V2.81581C7.82102 3.12228 7.57279 3.37052 7.26632 3.37052H5.73399C5.5593 3.37052 5.41526 3.51456 5.41526 3.68924V4.93288L7.23261 4.93166C7.53908 4.95311 7.78731 5.15967 7.78731 5.48575C7.73338 6.25192 7.6586 7.02605 7.59363 7.79344C7.56972 8.07968 7.32884 8.30218 7.04137 8.30218H5.41526V15.4453C5.41526 15.7499 5.16641 15.9994 4.86117 15.9994L2.1183 16C1.81244 16 1.56359 15.7512 1.56359 15.4453ZM2.28808 15.2767H4.69078V7.57769H6.88569L7.04812 5.65431H4.69078V3.68924C4.69078 3.11309 5.15783 2.64603 5.73399 2.64603H7.09654V0.724487H4.67729C3.35765 0.724487 2.28808 1.79405 2.28808 3.11309V5.65553H0.724487V7.57769H2.28808V15.2767Z" fill="white"/>
</svg>
