<svg width="16" height="16" viewBox="0 0 16 16" fill="none" xmlns="http://www.w3.org/2000/svg">
<g clip-path="url(#clip0_482_264)">
<path d="M7.99995 4.0166C5.80354 4.0166 4.0166 5.80348 4.0166 7.99985C4.0166 10.1962 5.80354 11.9831 7.99995 11.9831C10.1964 11.9831 11.9833 10.1962 11.9833 7.99985C11.9833 5.80348 10.1964 4.0166 7.99995 4.0166ZM7.99995 11.0456C6.32048 11.0456 4.9541 9.67929 4.9541 7.99985C4.9541 6.32041 6.32048 4.9541 7.99995 4.9541C9.67945 4.9541 11.0458 6.32041 11.0458 7.99985C11.0458 9.67929 9.67945 11.0456 7.99995 11.0456Z" fill="white"/>
<path d="M11.7656 0H4.23438C1.89953 0 0 1.89953 0 4.23438V11.7656C0 14.1005 1.89953 16 4.23438 16H11.7656C14.1005 16 16 14.1005 16 11.7656V4.23438C16 1.89953 14.1005 0 11.7656 0ZM15.0625 11.7656C15.0625 13.5835 13.5835 15.0625 11.7656 15.0625H4.23438C2.41647 15.0625 0.9375 13.5835 0.9375 11.7656V4.23438C0.9375 2.41647 2.41647 0.9375 4.23438 0.9375H11.7656C13.5835 0.9375 15.0625 2.41647 15.0625 4.23438V11.7656Z" fill="white"/>
<path d="M12 2C11.7367 2 11.4793 2.10667 11.2933 2.29333C11.1067 2.47933 11 2.73667 11 3C11 3.26333 11.1067 3.52133 11.2933 3.70733C11.4793 3.89333 11.7366 4 12 4C12.2634 4 12.5213 3.89333 12.7073 3.70733C12.8933 3.52133 13 3.26333 13 3C13 2.73733 12.8933 2.47933 12.7073 2.29333C12.5213 2.10667 12.2633 2 12 2Z" fill="white"/>
</g>
<defs>
<clipPath id="clip0_482_264">
<rect width="16" height="16" fill="white"/>
</clipPath>
</defs>
</svg>
