<svg width="253" height="92" viewBox="0 0 253 92" fill="none" xmlns="http://www.w3.org/2000/svg">
<path d="M36.3211 55.3917H30.0919C17.6336 55.3917 7.37939 45.1375 7.37939 32.5833C7.37939 20.0292 17.5377 9.87085 30.0919 9.87085H44.0836V47.5333H36.4169V17.5375H30.0919C21.7544 17.5375 15.0461 24.3417 15.0461 32.5833C15.0461 40.825 21.8502 47.6292 30.0919 47.6292H36.3211V55.3917Z" fill="#FF8C00"/>
<path d="M18.688 68.425V72.6417H26.0671V76.3792H18.688V80.8833H27.0255V84.8125H13.3213V64.4958H27.0255V68.425H18.688Z" fill="black"/>
<path d="M45.2336 84.9084L40.6336 78.5834L36.7044 84.9084H30.5711L37.5669 74.4626L30.3794 64.5917H36.7044L41.2086 70.7251L45.1377 64.5917H51.1752L44.1794 74.7501L51.5586 84.8126L45.2336 84.9084Z" fill="black"/>
<path d="M60.7586 77.7208V84.8125H55.4878V64.4958H64.1128C66.7003 64.4958 68.7128 65.0708 70.0545 66.3167C71.3961 67.4667 72.067 69.0958 72.067 71.2042C72.067 72.45 71.7795 73.6 71.1086 74.5583C70.5336 75.5167 69.5753 76.2833 68.4253 76.8583C67.1795 77.4333 65.742 77.7208 64.017 77.7208H60.7586ZM66.6045 71.2042C66.6045 69.3833 65.5503 68.5208 63.442 68.5208H60.7586V73.7917H63.442C65.5503 73.7917 66.6045 72.9292 66.6045 71.2042Z" fill="black"/>
<path d="M81.8421 68.425V72.6417H89.2213V76.3792H81.8421V80.8833H90.1796V84.8125H76.5713V64.4958H90.2755V68.425H81.8421Z" fill="black"/>
<path d="M113.467 79.925C112.509 81.4583 111.263 82.7042 109.538 83.5667C107.813 84.4292 105.8 84.8125 103.404 84.8125H95.0669V64.4958H103.404C105.8 64.4958 107.813 64.8792 109.538 65.7417C111.263 66.6042 112.604 67.7542 113.467 69.2875C114.425 70.8208 114.809 72.5458 114.809 74.5583C114.809 76.6667 114.329 78.3917 113.467 79.925ZM107.717 78.9667C108.867 77.9125 109.442 76.475 109.442 74.6542C109.442 72.8333 108.867 71.3958 107.717 70.3417C106.567 69.2875 104.938 68.8083 102.925 68.8083H100.434V80.5H102.925C104.938 80.5 106.567 79.925 107.717 78.9667Z" fill="black"/>
<path d="M124.967 64.4958V84.8125H119.696V64.4958H124.967Z" fill="black"/>
<path d="M146.338 64.4958V68.425H140.396V84.8125H135.03V68.425H129.088V64.4958H146.338Z" fill="black"/>
<path d="M155.73 64.4958V84.8125H150.459V64.4958H155.73Z" fill="black"/>
<path d="M177.292 65.55C179.017 66.4125 180.263 67.6584 181.317 69.2875C182.275 70.9167 182.755 72.6417 182.755 74.6542C182.755 76.6667 182.275 78.4875 181.317 80.0209C180.359 81.65 179.017 82.8959 177.292 83.7584C175.567 84.6209 173.746 85.1 171.734 85.1C169.721 85.1 167.805 84.6209 166.175 83.7584C164.45 82.8959 163.109 81.65 162.15 80.0209C161.192 78.3917 160.713 76.6667 160.713 74.6542C160.713 72.6417 161.192 70.9167 162.15 69.2875C163.109 67.7542 164.45 66.5084 166.175 65.55C167.9 64.6875 169.721 64.2084 171.734 64.2084C173.746 64.2084 175.567 64.6875 177.292 65.55ZM167.517 70.3417C166.463 71.3959 165.984 72.8334 165.984 74.6542C165.984 76.475 166.463 77.8167 167.517 78.8709C168.571 79.925 169.913 80.5 171.638 80.5C173.363 80.5 174.705 80.0209 175.759 78.8709C176.813 77.8167 177.292 76.3792 177.292 74.6542C177.292 72.8334 176.813 71.4917 175.759 70.4375C174.705 69.3834 173.363 68.9042 171.638 68.9042C169.913 68.9042 168.571 69.2875 167.517 70.3417Z" fill="black"/>
<path d="M207.096 84.9083H201.825L192.913 72.45V84.9083H187.642V64.4958H192.913L201.825 77.05V64.4958H207.096V84.9083Z" fill="black"/>
<path d="M227.509 82.1292C226.934 82.9917 226.072 83.7584 224.922 84.2375C223.772 84.8125 222.334 85.0042 220.705 85.0042C218.213 85.0042 216.201 84.4292 214.572 83.375C212.942 82.225 212.08 80.6917 211.984 78.6792H217.638C217.734 79.4459 218.022 80.0209 218.501 80.5C218.98 80.9792 219.651 81.1709 220.417 81.1709C221.088 81.1709 221.663 80.9792 222.047 80.6917C222.43 80.3084 222.622 79.925 222.622 79.35C222.622 78.8709 222.43 78.3917 222.047 78.1042C221.663 77.7209 221.28 77.4334 220.705 77.2417C220.13 77.05 219.459 76.7625 218.501 76.475C217.159 75.9959 216.009 75.6125 215.147 75.2292C214.284 74.8459 213.517 74.175 212.847 73.4084C212.176 72.6417 211.888 71.4917 211.888 70.2459C211.888 69 212.176 68.0417 212.847 67.0834C213.517 66.2209 214.38 65.55 215.626 65.0709C216.776 64.5917 218.117 64.4 219.651 64.4C222.047 64.4 224.059 64.975 225.497 66.0292C226.934 67.0834 227.701 68.6167 227.892 70.4375H222.142C222.047 69.7667 221.759 69.1917 221.376 68.8084C220.992 68.425 220.417 68.2334 219.651 68.2334C219.076 68.2334 218.501 68.425 218.117 68.7125C217.734 69 217.542 69.4792 217.542 70.0542C217.542 70.5334 217.734 70.9167 218.022 71.3C218.405 71.6834 218.788 71.875 219.267 72.1625C219.747 72.3542 220.513 72.6417 221.472 72.9292C222.909 73.4084 224.059 73.7917 224.922 74.2709C225.784 74.75 226.551 75.325 227.222 76.1875C227.892 77.05 228.18 78.1042 228.18 79.4459C228.372 80.2125 228.084 81.1709 227.509 82.1292Z" fill="black"/>
<path d="M70.0546 33.7334C71.3004 34.6917 72.1629 35.9375 72.6421 37.6625H69.8629C69.4796 36.8 68.9046 36.1292 68.1379 35.5542C67.3712 34.9792 66.4129 34.7875 65.2629 34.7875C64.2087 34.7875 63.3462 34.9792 62.5796 35.4584C61.8129 35.9375 61.1421 36.6084 60.6629 37.4709C60.1837 38.3334 59.9921 39.3875 59.9921 40.5375C59.9921 41.7834 60.1837 42.8375 60.6629 43.7C61.1421 44.5625 61.8129 45.2334 62.5796 45.7125C63.4421 46.1917 64.4004 46.3834 65.4546 46.3834C66.7962 46.3834 67.9462 46 68.9046 45.1375C69.8629 44.275 70.4379 43.125 70.6296 41.6875H64.6879V39.7709H72.8337V42.2625C72.6421 43.4125 72.2587 44.5625 71.5879 45.5209C70.9171 46.4792 70.0546 47.2459 68.9046 47.8209C67.8504 48.3959 66.5087 48.6834 65.1671 48.6834C63.6337 48.6834 62.1962 48.3 60.9504 47.6292C59.7046 46.9584 58.8421 45.9042 58.1712 44.6584C57.5004 43.4125 57.2129 41.975 57.2129 40.3459C57.2129 38.7167 57.5004 37.2792 58.1712 36.0334C58.8421 34.7875 59.8004 33.8292 60.9504 33.1584C62.1962 32.4875 63.5379 32.1042 65.1671 32.1042C67.1796 32.2959 68.8087 32.775 70.0546 33.7334Z" fill="#333333"/>
<path d="M88.6462 42.9333H78.8712C78.8712 44.275 79.2545 45.2333 79.9254 45.8083C80.5962 46.3833 81.4587 46.7667 82.417 46.7667C83.2795 46.7667 84.0462 46.575 84.6212 46.0958C85.1962 45.6167 85.5795 45.0417 85.7712 44.3708H88.5504C88.3587 45.2333 88.0712 46.0958 87.4962 46.7667C86.9212 47.4375 86.2504 48.0125 85.3879 48.3958C84.5254 48.7792 83.567 48.9708 82.5129 48.9708C81.267 48.9708 80.2129 48.6833 79.2545 48.2042C78.2962 47.725 77.5295 46.9583 77.0504 45.9042C76.4754 44.9458 76.2837 43.7958 76.2837 42.4542C76.2837 41.1125 76.5712 39.9625 77.0504 39.0042C77.6254 38.0458 78.2962 37.2792 79.2545 36.7042C80.2129 36.225 81.267 35.9375 82.5129 35.9375C83.7587 35.9375 84.8129 36.225 85.7712 36.7042C86.7295 37.1833 87.4004 37.95 87.8795 38.8125C88.3587 39.675 88.6462 40.7292 88.6462 41.7833C88.742 42.1667 88.742 42.55 88.6462 42.9333ZM85.6754 39.5792C85.3879 39.0042 84.9087 38.6208 84.4295 38.3333C83.8545 38.0458 83.2795 37.95 82.6087 37.95C81.5545 37.95 80.692 38.2375 80.0212 38.9083C79.3504 39.5792 78.967 40.4417 78.8712 41.6875H86.0587C86.1545 40.825 85.9629 40.1542 85.6754 39.5792Z" fill="#333333"/>
<path d="M101.775 36.6083C102.734 37.0875 103.5 37.8542 104.075 38.9083C104.65 39.8667 104.938 41.0167 104.938 42.3583C104.938 43.7 104.65 44.85 104.075 45.8083C103.5 46.7667 102.734 47.5333 101.775 48.1083C100.817 48.5875 99.6672 48.875 98.4213 48.875C97.1755 48.875 96.1213 48.5875 95.163 48.1083C94.2047 47.6292 93.438 46.8625 92.863 45.8083C92.288 44.7542 92.0005 43.7 92.0005 42.3583C92.0005 41.0167 92.288 39.8667 92.863 38.9083C93.438 37.95 94.2047 37.1833 95.163 36.6083C96.1213 36.1292 97.2713 35.8417 98.4213 35.8417C99.6672 35.8417 100.817 36.1292 101.775 36.6083ZM96.6005 38.6208C96.0255 38.9083 95.5463 39.3875 95.2588 40.0583C94.8755 40.7292 94.7797 41.4958 94.7797 42.3583C94.7797 43.3167 94.9713 44.0833 95.2588 44.6583C95.5463 45.2333 96.0255 45.7125 96.6005 46.0958C97.1755 46.3833 97.7505 46.575 98.4213 46.575C99.0922 46.575 99.763 46.3833 100.242 46.0958C100.817 45.8083 101.296 45.3292 101.584 44.6583C101.967 43.9875 102.063 43.2208 102.063 42.3583C102.063 41.4 101.871 40.6333 101.584 40.0583C101.2 39.3875 100.817 38.9083 100.242 38.6208C99.6672 38.3333 99.0922 38.1417 98.4213 38.1417C97.7505 38.1417 97.1755 38.3333 96.6005 38.6208Z" fill="#333333"/>
<path d="M116.821 36.7042C117.588 37.2792 118.163 38.0459 118.546 39.0042V36.0334H121.134V48.875C121.134 50.025 120.846 51.0792 120.367 52.0375C119.888 52.9959 119.217 53.6667 118.259 54.1459C117.396 54.625 116.246 54.9125 115 54.9125C113.179 54.9125 111.742 54.5292 110.688 53.6667C109.634 52.8042 108.867 51.6542 108.675 50.2167H111.263C111.454 50.9834 111.934 51.5584 112.509 51.9417C113.084 52.325 113.946 52.6125 114.809 52.6125C115.863 52.6125 116.725 52.325 117.396 51.6542C118.067 50.9834 118.45 50.1209 118.45 48.875V45.8084C118.067 46.7667 117.492 47.5334 116.725 48.1084C115.959 48.6834 114.904 48.9709 113.754 48.9709C112.604 48.9709 111.646 48.6834 110.784 48.2042C109.921 47.725 109.25 46.9584 108.771 45.9042C108.292 44.9459 108.004 43.7959 108.004 42.4542C108.004 41.1125 108.292 39.9625 108.771 39.0042C109.25 38.0459 109.921 37.2792 110.784 36.7042C111.646 36.225 112.604 35.9375 113.754 35.9375C115 35.8417 115.959 36.1292 116.821 36.7042ZM111.838 39.2917C111.167 40.0584 110.784 41.0167 110.784 42.3584C110.784 43.7 111.167 44.6584 111.838 45.425C112.509 46.1917 113.467 46.575 114.617 46.575C115.384 46.575 116.054 46.3834 116.629 46.0959C117.204 45.7125 117.684 45.2334 117.971 44.6584C118.354 43.9875 118.45 43.3167 118.45 42.4542C118.45 41.5917 118.259 40.9209 117.971 40.25C117.588 39.5792 117.204 39.1 116.629 38.8125C116.054 38.4292 115.384 38.3334 114.617 38.3334C113.467 38.1417 112.604 38.525 111.838 39.2917Z" fill="#333333"/>
<path d="M130.142 36.5125C130.909 36.0333 131.867 35.7458 132.921 35.7458V38.6208H132.155C131.005 38.6208 130.046 38.9084 129.376 39.4834C128.705 40.0584 128.321 40.9208 128.321 42.2625V48.6833H125.734V36.0333H128.321V38.525C128.705 37.6625 129.376 36.9917 130.142 36.5125Z" fill="#333333"/>
<path d="M144.325 36.7042C145.092 37.2792 145.667 38.0458 146.05 39.0042V36.0333H148.638V48.6833H146.05V45.7125C145.667 46.6708 145.092 47.4375 144.325 48.0125C143.559 48.5875 142.504 48.875 141.354 48.875C140.204 48.875 139.246 48.5875 138.384 48.1083C137.521 47.6292 136.85 46.8625 136.371 45.8083C135.892 44.85 135.604 43.7 135.604 42.3583C135.604 41.0167 135.892 39.8667 136.371 38.9083C136.85 37.95 137.521 37.1833 138.384 36.6083C139.246 36.1292 140.204 35.8417 141.354 35.8417C142.504 35.8417 143.463 36.1292 144.325 36.7042ZM139.342 39.2917C138.671 40.0583 138.288 41.0167 138.288 42.3583C138.288 43.7 138.671 44.6583 139.342 45.425C140.013 46.1917 140.971 46.575 142.121 46.575C142.888 46.575 143.559 46.3833 144.134 46.0958C144.709 45.7125 145.188 45.2333 145.475 44.6583C145.763 44.0833 145.954 43.3167 145.954 42.4542C145.954 41.5917 145.763 40.9208 145.475 40.25C145.092 39.5792 144.709 39.1 144.134 38.8125C143.559 38.4292 142.888 38.3333 142.121 38.3333C140.971 38.1417 140.013 38.525 139.342 39.2917Z" fill="#333333"/>
<path d="M163.396 36.6083C164.259 37.0875 164.93 37.8542 165.409 38.9083C165.888 39.8667 166.175 41.0167 166.175 42.3583C166.175 43.7 165.888 44.85 165.409 45.8083C164.93 46.7667 164.259 47.5333 163.396 48.1083C162.534 48.5875 161.575 48.875 160.425 48.875C159.275 48.875 158.317 48.5875 157.455 48.0125C156.688 47.4375 156.113 46.6708 155.73 45.7125V54.7208H153.142V36.0333H155.73V39.0042C156.017 38.0458 156.592 37.2792 157.455 36.7042C158.221 36.1292 159.275 35.8417 160.425 35.8417C161.48 35.8417 162.534 36.1292 163.396 36.6083ZM157.646 38.7167C157.071 39.1 156.592 39.5792 156.305 40.1542C155.921 40.825 155.825 41.4958 155.825 42.3583C155.825 43.2208 156.017 43.8917 156.305 44.5625C156.688 45.2333 157.071 45.7125 157.646 46C158.221 46.3833 158.892 46.4792 159.659 46.4792C160.809 46.4792 161.767 46.0958 162.438 45.3292C163.109 44.5625 163.492 43.6042 163.492 42.2625C163.492 41.0167 163.109 39.9625 162.438 39.1958C161.767 38.4292 160.809 38.0458 159.659 38.0458C158.892 38.1417 158.221 38.3333 157.646 38.7167Z" fill="#333333"/>
<path d="M180.646 37.2792C181.509 38.2375 181.988 39.5792 181.988 41.3042V48.6833H179.4V41.5917C179.4 40.4417 179.113 39.5792 178.538 39.0042C177.963 38.4292 177.196 38.0458 176.142 38.0458C175.088 38.0458 174.225 38.3333 173.65 39.0042C172.979 39.675 172.692 40.6333 172.692 41.975V48.6833H170.104V31.7208H172.692V38.8125C173.075 37.8542 173.554 37.0875 174.417 36.6083C175.279 36.1292 176.142 35.8417 177.196 35.8417C178.634 35.8417 179.784 36.3208 180.646 37.2792Z" fill="#333333"/>
<path d="M186.588 31.2417C186.876 30.9542 187.259 30.7625 187.834 30.7625C188.313 30.7625 188.792 30.9542 189.08 31.2417C189.367 31.5292 189.559 31.9125 189.559 32.3917C189.559 32.8708 189.367 33.1583 189.08 33.4458C188.792 33.7333 188.313 33.8292 187.834 33.8292C187.355 33.8292 186.876 33.7333 186.588 33.4458C186.301 33.1583 186.109 32.775 186.109 32.3917C186.109 31.9125 186.205 31.5292 186.588 31.2417ZM189.08 36.0333V48.6833H186.492V36.0333H189.08Z" fill="#333333"/>
<path d="M203.359 37.1833C204.413 38.0458 205.084 39.1958 205.371 40.7292H202.592C202.4 39.9625 202.113 39.2917 201.442 38.8125C200.867 38.3333 200.1 38.1417 199.238 38.1417C198.184 38.1417 197.417 38.525 196.746 39.1958C196.075 39.8667 195.692 40.9208 195.692 42.3583C195.692 43.7958 196.075 44.7542 196.746 45.5208C197.417 46.2875 198.279 46.575 199.238 46.575C200.1 46.575 200.867 46.3833 201.442 45.9042C202.017 45.425 202.4 44.85 202.592 43.9875H205.371C205.084 45.5208 204.413 46.6708 203.359 47.5333C202.304 48.3958 200.963 48.875 199.334 48.875C198.088 48.875 197.034 48.5875 196.075 48.1083C195.117 47.6292 194.35 46.8625 193.871 45.8083C193.296 44.85 193.104 43.7 193.104 42.3583C193.104 41.0167 193.392 39.8667 193.871 38.9083C194.446 37.95 195.117 37.1833 196.075 36.6083C197.034 36.1292 198.088 35.8417 199.334 35.8417C200.867 35.8417 202.304 36.3208 203.359 37.1833Z" fill="#333333"/>
<path d="M217.255 36.7042C218.021 37.2792 218.596 38.0458 218.98 39.0042V36.0333H221.567V48.6833H218.98V45.7125C218.596 46.6708 218.021 47.4375 217.255 48.0125C216.488 48.5875 215.434 48.875 214.284 48.875C213.134 48.875 212.175 48.5875 211.313 48.1083C210.45 47.6292 209.78 46.8625 209.3 45.8083C208.821 44.85 208.534 43.7 208.534 42.3583C208.534 41.0167 208.821 39.8667 209.3 38.9083C209.78 37.95 210.45 37.1833 211.313 36.6083C212.175 36.1292 213.134 35.8417 214.284 35.8417C215.53 35.8417 216.488 36.1292 217.255 36.7042ZM212.367 39.2917C211.696 40.0583 211.313 41.0167 211.313 42.3583C211.313 43.7 211.696 44.6583 212.367 45.425C213.038 46.1917 213.996 46.575 215.146 46.575C215.913 46.575 216.584 46.3833 217.159 46.0958C217.734 45.7125 218.213 45.2333 218.5 44.6583C218.788 44.0833 218.98 43.3167 218.98 42.4542C218.98 41.5917 218.788 40.9208 218.5 40.25C218.117 39.5792 217.734 39.1 217.159 38.8125C216.584 38.4292 215.913 38.3333 215.146 38.3333C213.996 38.1417 213.038 38.525 212.367 39.2917Z" fill="#333333"/>
<path d="M228.754 31.7208V48.7792H226.167V31.7208H228.754Z" fill="#333333"/>
<path d="M65.8376 25.1084H58.9376L57.6918 28.6542H54.9126L60.8543 12.65H63.8251L69.7668 28.6542H67.0834L65.8376 25.1084ZM65.0709 23.0959L62.3876 15.525L59.7043 23.0959H65.0709Z" fill="#333333"/>
<path d="M80.8833 16.9625C81.7458 17.7292 82.3208 18.7833 82.5124 20.0292H80.0208C79.9249 19.3583 79.6374 18.7833 79.1583 18.4C78.6791 18.0167 78.0083 17.7292 77.2416 17.7292C76.5708 17.7292 76.0916 17.9208 75.7083 18.2083C75.3249 18.4958 75.1333 18.975 75.1333 19.4542C75.1333 19.8375 75.2291 20.2208 75.5166 20.4125C75.8041 20.6042 76.0916 20.8917 76.4749 20.9875C76.8583 21.0833 77.4333 21.275 78.1041 21.4667C79.0624 21.6583 79.8291 21.9458 80.4041 22.1375C80.9791 22.3292 81.4583 22.7125 81.9374 23.1917C82.3208 23.6708 82.6083 24.3417 82.6083 25.2042C82.6083 26.2583 82.2249 27.1208 81.3624 27.7917C80.4999 28.4625 79.4458 28.75 78.1041 28.75C76.5708 28.75 75.2291 28.3667 74.2708 27.6C73.3124 26.8333 72.8333 25.875 72.6416 24.6292H75.2291C75.3249 25.3 75.6124 25.875 76.1874 26.3542C76.7624 26.7375 77.4333 27.025 78.2958 27.025C78.9666 27.025 79.4458 26.8333 79.7333 26.5458C80.1166 26.2583 80.3083 25.7792 80.3083 25.3C80.3083 24.8208 80.2124 24.5333 79.9249 24.2458C79.6374 23.9583 79.3499 23.7667 78.8708 23.6708C78.4874 23.4792 77.9124 23.3833 77.1458 23.1917C76.1874 23 75.5166 22.8083 74.9416 22.5208C74.3666 22.2333 73.8874 21.9458 73.5041 21.4667C73.1208 20.9875 72.9291 20.3167 72.9291 19.4542C72.9291 18.4 73.3124 17.5375 74.1749 16.8667C74.9416 16.1958 76.0916 15.9083 77.5291 15.9083C78.8708 15.8125 80.0208 16.1958 80.8833 16.9625Z" fill="#333333"/>
<path d="M86.8249 11.1167C87.1124 10.8292 87.4957 10.6375 88.0707 10.6375C88.6457 10.6375 89.029 10.8292 89.3165 11.1167C89.604 11.4042 89.7957 11.7875 89.7957 12.2667C89.7957 12.7458 89.604 13.0333 89.3165 13.3208C89.029 13.6083 88.5499 13.7042 88.0707 13.7042C87.5915 13.7042 87.1124 13.6083 86.8249 13.3208C86.5374 13.0333 86.3457 12.65 86.3457 12.2667C86.3457 11.7875 86.4415 11.4042 86.8249 11.1167ZM89.3165 15.9083V28.5583H86.729V15.9083H89.3165Z" fill="#333333"/>
<path d="M101.871 16.675C102.637 17.25 103.212 18.0167 103.596 18.975V16.0042H106.183V28.6542H103.596V25.6833C103.212 26.6417 102.637 27.4083 101.871 27.9833C101.104 28.5583 100.05 28.8458 98.8999 28.8458C97.7499 28.8458 96.7916 28.5583 95.9291 28.0792C95.0666 27.6 94.3957 26.8333 93.9166 25.7792C93.4374 24.8208 93.1499 23.6708 93.1499 22.3292C93.1499 20.9875 93.4374 19.8375 93.9166 18.8792C94.3957 17.9208 95.0666 17.1542 95.9291 16.5792C96.7916 16.1 97.7499 15.8125 98.8999 15.8125C100.146 15.8125 101.104 16.1 101.871 16.675ZM96.9832 19.1667C96.3124 19.9333 95.9291 20.8917 95.9291 22.2333C95.9291 23.575 96.3124 24.5333 96.9832 25.3C97.6541 26.0667 98.6124 26.45 99.7624 26.45C100.529 26.45 101.2 26.2583 101.775 25.9708C102.35 25.6833 102.829 25.1083 103.117 24.5333C103.5 23.8625 103.596 23.1917 103.596 22.3292C103.596 21.4667 103.404 20.7958 103.117 20.125C102.733 19.4542 102.35 18.975 101.775 18.6875C101.2 18.3042 100.529 18.2083 99.7624 18.2083C98.6124 18.1125 97.6541 18.4958 96.9832 19.1667Z" fill="#333333"/>
<path d="M121.421 17.1542C122.284 18.1125 122.763 19.4542 122.763 21.1792V28.5583H120.175V21.4667C120.175 20.3167 119.888 19.4542 119.313 18.8792C118.738 18.3042 117.971 17.9208 116.917 17.9208C115.863 17.9208 115 18.2083 114.425 18.8792C113.754 19.55 113.467 20.5083 113.467 21.85V28.5583H110.879V15.9083H113.467V18.6875C113.85 17.7292 114.329 16.9625 115.192 16.4833C115.959 16.0042 116.917 15.7167 117.971 15.7167C119.313 15.7167 120.559 16.1958 121.421 17.1542Z" fill="#333333"/>
</svg>
