<svg width="253" height="92" viewBox="0 0 253 92" fill="none" xmlns="http://www.w3.org/2000/svg">
<path d="M36.3211 55.3919H30.0919C17.6336 55.3919 7.37939 45.1378 7.37939 32.5836C7.37939 20.0294 17.5377 9.87109 30.0919 9.87109H44.0836V47.5336H36.4169V17.5378H30.0919C21.7544 17.5378 15.0461 24.3419 15.0461 32.5836C15.0461 40.8253 21.8502 47.6294 30.0919 47.6294H36.3211V55.3919Z" fill="#FF8C00"/>
<path d="M18.688 68.4253V72.6419H26.0671V76.3794H18.688V80.8836H27.0255V84.8128H13.3213V64.4961H27.0255V68.4253H18.688Z" fill="white"/>
<path d="M45.2336 84.9094L40.6336 78.5844L36.7044 84.9094H30.5711L37.5669 74.4636L30.3794 64.5928H36.7044L41.2086 70.7261L45.1377 64.5928H51.1752L44.1794 74.7511L51.5586 84.8136L45.2336 84.9094Z" fill="white"/>
<path d="M60.7586 77.7211V84.8128H55.4878V64.4961H64.1128C66.7003 64.4961 68.7128 65.0711 70.0545 66.3169C71.3961 67.4669 72.067 69.0961 72.067 71.2044C72.067 72.4503 71.7795 73.6003 71.1086 74.5586C70.5336 75.5169 69.5753 76.2836 68.4253 76.8586C67.1795 77.4336 65.742 77.7211 64.017 77.7211H60.7586ZM66.6045 71.2044C66.6045 69.3836 65.5503 68.5211 63.442 68.5211H60.7586V73.7919H63.442C65.5503 73.7919 66.6045 72.9294 66.6045 71.2044Z" fill="white"/>
<path d="M81.8421 68.4253V72.6419H89.2213V76.3794H81.8421V80.8836H90.1796V84.8128H76.5713V64.4961H90.2755V68.4253H81.8421Z" fill="white"/>
<path d="M113.467 79.9253C112.509 81.4586 111.263 82.7044 109.538 83.5669C107.813 84.4294 105.8 84.8128 103.404 84.8128H95.0669V64.4961H103.404C105.8 64.4961 107.813 64.8794 109.538 65.7419C111.263 66.6044 112.604 67.7544 113.467 69.2878C114.425 70.8211 114.809 72.5461 114.809 74.5586C114.809 76.6669 114.329 78.3919 113.467 79.9253ZM107.717 78.9669C108.867 77.9128 109.442 76.4753 109.442 74.6544C109.442 72.8336 108.867 71.3961 107.717 70.3419C106.567 69.2878 104.938 68.8086 102.925 68.8086H100.434V80.5003H102.925C104.938 80.5003 106.567 79.9253 107.717 78.9669Z" fill="white"/>
<path d="M124.967 64.4961V84.8128H119.696V64.4961H124.967Z" fill="white"/>
<path d="M146.338 64.4961V68.4253H140.396V84.8128H135.03V68.4253H129.088V64.4961H146.338Z" fill="white"/>
<path d="M155.73 64.4961V84.8128H150.459V64.4961H155.73Z" fill="white"/>
<path d="M177.292 65.5507C179.017 66.4132 180.263 67.659 181.317 69.2882C182.275 70.9173 182.755 72.6423 182.755 74.6548C182.755 76.6673 182.275 78.4882 181.317 80.0215C180.359 81.6507 179.017 82.8965 177.292 83.759C175.567 84.6215 173.746 85.1007 171.734 85.1007C169.721 85.1007 167.805 84.6215 166.175 83.759C164.45 82.8965 163.109 81.6507 162.15 80.0215C161.192 78.3923 160.713 76.6673 160.713 74.6548C160.713 72.6423 161.192 70.9173 162.15 69.2882C163.109 67.7548 164.45 66.509 166.175 65.5507C167.9 64.6882 169.721 64.209 171.734 64.209C173.746 64.209 175.567 64.6882 177.292 65.5507ZM167.517 70.3423C166.463 71.3965 165.984 72.834 165.984 74.6548C165.984 76.4757 166.463 77.8173 167.517 78.8715C168.571 79.9257 169.913 80.5007 171.638 80.5007C173.363 80.5007 174.705 80.0215 175.759 78.8715C176.813 77.8173 177.292 76.3798 177.292 74.6548C177.292 72.834 176.813 71.4923 175.759 70.4382C174.705 69.384 173.363 68.9048 171.638 68.9048C169.913 68.9048 168.571 69.2882 167.517 70.3423Z" fill="white"/>
<path d="M207.096 84.9086H201.825L192.913 72.4503V84.9086H187.642V64.4961H192.913L201.825 77.0503V64.4961H207.096V84.9086Z" fill="white"/>
<path d="M227.509 82.1296C226.934 82.9921 226.072 83.7587 224.922 84.2379C223.772 84.8129 222.334 85.0046 220.705 85.0046C218.213 85.0046 216.201 84.4296 214.572 83.3754C212.942 82.2254 212.08 80.6921 211.984 78.6796H217.638C217.734 79.4462 218.022 80.0212 218.501 80.5004C218.98 80.9796 219.651 81.1712 220.417 81.1712C221.088 81.1712 221.663 80.9796 222.047 80.6921C222.43 80.3087 222.622 79.9254 222.622 79.3504C222.622 78.8712 222.43 78.3921 222.047 78.1046C221.663 77.7212 221.28 77.4337 220.705 77.2421C220.13 77.0504 219.459 76.7629 218.501 76.4754C217.159 75.9962 216.009 75.6129 215.147 75.2296C214.284 74.8462 213.517 74.1754 212.847 73.4087C212.176 72.6421 211.888 71.4921 211.888 70.2462C211.888 69.0004 212.176 68.0421 212.847 67.0837C213.517 66.2212 214.38 65.5504 215.626 65.0712C216.776 64.5921 218.117 64.4004 219.651 64.4004C222.047 64.4004 224.059 64.9754 225.497 66.0296C226.934 67.0837 227.701 68.6171 227.892 70.4379H222.142C222.047 69.7671 221.759 69.1921 221.376 68.8087C220.992 68.4254 220.417 68.2337 219.651 68.2337C219.076 68.2337 218.501 68.4254 218.117 68.7129C217.734 69.0004 217.542 69.4796 217.542 70.0546C217.542 70.5337 217.734 70.9171 218.022 71.3004C218.405 71.6837 218.788 71.8754 219.267 72.1629C219.747 72.3546 220.513 72.6421 221.472 72.9296C222.909 73.4087 224.059 73.7921 224.922 74.2712C225.784 74.7504 226.551 75.3254 227.222 76.1879C227.892 77.0504 228.18 78.1046 228.18 79.4462C228.372 80.2129 228.084 81.1712 227.509 82.1296Z" fill="white"/>
<path d="M70.0546 33.7337C71.3004 34.692 72.1629 35.9378 72.6421 37.6628H69.8629C69.4796 36.8003 68.9046 36.1295 68.1379 35.5545C67.3712 34.9795 66.4129 34.7878 65.2629 34.7878C64.2087 34.7878 63.3462 34.9795 62.5796 35.4587C61.8129 35.9378 61.1421 36.6087 60.6629 37.4712C60.1837 38.3337 59.9921 39.3878 59.9921 40.5378C59.9921 41.7837 60.1837 42.8378 60.6629 43.7003C61.1421 44.5628 61.8129 45.2337 62.5796 45.7128C63.4421 46.192 64.4004 46.3837 65.4546 46.3837C66.7962 46.3837 67.9462 46.0003 68.9046 45.1378C69.8629 44.2753 70.4379 43.1253 70.6296 41.6878H64.6879V39.7712H72.8337V42.2628C72.6421 43.4128 72.2587 44.5628 71.5879 45.5212C70.9171 46.4795 70.0546 47.2462 68.9046 47.8212C67.8504 48.3962 66.5087 48.6837 65.1671 48.6837C63.6337 48.6837 62.1962 48.3003 60.9504 47.6295C59.7046 46.9587 58.8421 45.9045 58.1712 44.6587C57.5004 43.4128 57.2129 41.9753 57.2129 40.3462C57.2129 38.717 57.5004 37.2795 58.1712 36.0337C58.8421 34.7878 59.8004 33.8295 60.9504 33.1587C62.1962 32.4878 63.5379 32.1045 65.1671 32.1045C67.1796 32.2962 68.8087 32.7753 70.0546 33.7337Z" fill="white"/>
<path d="M88.6462 42.9333H78.8712C78.8712 44.275 79.2545 45.2333 79.9254 45.8083C80.5962 46.3833 81.4587 46.7667 82.417 46.7667C83.2795 46.7667 84.0462 46.575 84.6212 46.0958C85.1962 45.6167 85.5795 45.0417 85.7712 44.3708H88.5504C88.3587 45.2333 88.0712 46.0958 87.4962 46.7667C86.9212 47.4375 86.2504 48.0125 85.3879 48.3958C84.5254 48.7792 83.567 48.9708 82.5129 48.9708C81.267 48.9708 80.2129 48.6833 79.2545 48.2042C78.2962 47.725 77.5295 46.9583 77.0504 45.9042C76.4754 44.9458 76.2837 43.7958 76.2837 42.4542C76.2837 41.1125 76.5712 39.9625 77.0504 39.0042C77.6254 38.0458 78.2962 37.2792 79.2545 36.7042C80.2129 36.225 81.267 35.9375 82.5129 35.9375C83.7587 35.9375 84.8129 36.225 85.7712 36.7042C86.7295 37.1833 87.4004 37.95 87.8795 38.8125C88.3587 39.675 88.6462 40.7292 88.6462 41.7833C88.742 42.1667 88.742 42.55 88.6462 42.9333ZM85.6754 39.5792C85.3879 39.0042 84.9087 38.6208 84.4295 38.3333C83.8545 38.0458 83.2795 37.95 82.6087 37.95C81.5545 37.95 80.692 38.2375 80.0212 38.9083C79.3504 39.5792 78.967 40.4417 78.8712 41.6875H86.0587C86.1545 40.825 85.9629 40.1542 85.6754 39.5792Z" fill="white"/>
<path d="M101.775 36.6085C102.734 37.0876 103.5 37.8543 104.075 38.9085C104.65 39.8668 104.938 41.0168 104.938 42.3585C104.938 43.7001 104.65 44.8501 104.075 45.8085C103.5 46.7668 102.734 47.5335 101.775 48.1085C100.817 48.5876 99.6672 48.8751 98.4213 48.8751C97.1755 48.8751 96.1213 48.5876 95.163 48.1085C94.2047 47.6293 93.438 46.8626 92.863 45.8085C92.288 44.7543 92.0005 43.7001 92.0005 42.3585C92.0005 41.0168 92.288 39.8668 92.863 38.9085C93.438 37.9501 94.2047 37.1835 95.163 36.6085C96.1213 36.1293 97.2713 35.8418 98.4213 35.8418C99.6672 35.8418 100.817 36.1293 101.775 36.6085ZM96.6005 38.621C96.0255 38.9085 95.5463 39.3876 95.2588 40.0585C94.8755 40.7293 94.7797 41.496 94.7797 42.3585C94.7797 43.3168 94.9713 44.0835 95.2588 44.6585C95.5463 45.2335 96.0255 45.7126 96.6005 46.096C97.1755 46.3835 97.7505 46.5751 98.4213 46.5751C99.0922 46.5751 99.763 46.3835 100.242 46.096C100.817 45.8085 101.296 45.3293 101.584 44.6585C101.967 43.9876 102.063 43.221 102.063 42.3585C102.063 41.4001 101.871 40.6335 101.584 40.0585C101.2 39.3876 100.817 38.9085 100.242 38.621C99.6672 38.3335 99.0922 38.1418 98.4213 38.1418C97.7505 38.1418 97.1755 38.3335 96.6005 38.621Z" fill="white"/>
<path d="M116.821 36.7047C117.588 37.2797 118.163 38.0464 118.546 39.0047V36.0339H121.134V48.8756C121.134 50.0256 120.846 51.0797 120.367 52.0381C119.888 52.9964 119.217 53.6672 118.259 54.1464C117.396 54.6256 116.246 54.9131 115 54.9131C113.179 54.9131 111.742 54.5297 110.688 53.6672C109.634 52.8047 108.867 51.6548 108.675 50.2173H111.263C111.454 50.9839 111.934 51.5589 112.509 51.9422C113.084 52.3256 113.946 52.6131 114.809 52.6131C115.863 52.6131 116.725 52.3256 117.396 51.6547C118.067 50.9839 118.45 50.1214 118.45 48.8756V45.8089C118.067 46.7672 117.492 47.5339 116.725 48.1089C115.959 48.6839 114.904 48.9714 113.754 48.9714C112.604 48.9714 111.646 48.6839 110.784 48.2047C109.921 47.7256 109.25 46.9589 108.771 45.9048C108.292 44.9464 108.004 43.7964 108.004 42.4547C108.004 41.1131 108.292 39.9631 108.771 39.0047C109.25 38.0464 109.921 37.2797 110.784 36.7047C111.646 36.2256 112.604 35.9381 113.754 35.9381C115 35.8422 115.959 36.1297 116.821 36.7047ZM111.838 39.2922C111.167 40.0589 110.784 41.0172 110.784 42.3589C110.784 43.7006 111.167 44.6589 111.838 45.4256C112.509 46.1923 113.467 46.5756 114.617 46.5756C115.384 46.5756 116.054 46.3839 116.629 46.0964C117.204 45.7131 117.684 45.2339 117.971 44.6589C118.354 43.9881 118.45 43.3172 118.45 42.4547C118.45 41.5922 118.259 40.9214 117.971 40.2506C117.588 39.5797 117.204 39.1006 116.629 38.8131C116.054 38.4297 115.384 38.3339 114.617 38.3339C113.467 38.1422 112.604 38.5256 111.838 39.2922Z" fill="white"/>
<path d="M130.142 36.5128C130.909 36.0336 131.867 35.7461 132.921 35.7461V38.6211H132.155C131.005 38.6211 130.046 38.9086 129.376 39.4836C128.705 40.0586 128.321 40.9211 128.321 42.2628V48.6836H125.734V36.0336H128.321V38.5253C128.705 37.6628 129.376 36.9919 130.142 36.5128Z" fill="white"/>
<path d="M144.325 36.7043C145.092 37.2793 145.667 38.046 146.05 39.0043V36.0335H148.638V48.6835H146.05V45.7126C145.667 46.671 145.092 47.4376 144.325 48.0126C143.559 48.5876 142.504 48.8751 141.354 48.8751C140.204 48.8751 139.246 48.5876 138.384 48.1085C137.521 47.6293 136.85 46.8626 136.371 45.8085C135.892 44.8501 135.604 43.7001 135.604 42.3585C135.604 41.0168 135.892 39.8668 136.371 38.9085C136.85 37.9501 137.521 37.1835 138.384 36.6085C139.246 36.1293 140.204 35.8418 141.354 35.8418C142.504 35.8418 143.463 36.1293 144.325 36.7043ZM139.342 39.2918C138.671 40.0585 138.288 41.0168 138.288 42.3585C138.288 43.7001 138.671 44.6585 139.342 45.4251C140.013 46.1918 140.971 46.5751 142.121 46.5751C142.888 46.5751 143.559 46.3835 144.134 46.096C144.709 45.7126 145.188 45.2335 145.475 44.6585C145.763 44.0835 145.954 43.3168 145.954 42.4543C145.954 41.5918 145.763 40.921 145.475 40.2501C145.092 39.5793 144.709 39.1001 144.134 38.8126C143.559 38.4293 142.888 38.3335 142.121 38.3335C140.971 38.1418 140.013 38.5251 139.342 39.2918Z" fill="white"/>
<path d="M163.396 36.6085C164.259 37.0876 164.93 37.8543 165.409 38.9085C165.888 39.8668 166.175 41.0168 166.175 42.3585C166.175 43.7001 165.888 44.8501 165.409 45.8085C164.93 46.7668 164.259 47.5335 163.396 48.1085C162.534 48.5876 161.575 48.8751 160.425 48.8751C159.275 48.8751 158.317 48.5876 157.455 48.0126C156.688 47.4376 156.113 46.671 155.73 45.7126V54.721H153.142V36.0335H155.73V39.0043C156.017 38.046 156.592 37.2793 157.455 36.7043C158.221 36.1293 159.275 35.8418 160.425 35.8418C161.48 35.8418 162.534 36.1293 163.396 36.6085ZM157.646 38.7168C157.071 39.1001 156.592 39.5793 156.305 40.1543C155.921 40.8251 155.825 41.496 155.825 42.3585C155.825 43.221 156.017 43.8918 156.305 44.5626C156.688 45.2335 157.071 45.7126 157.646 46.0001C158.221 46.3835 158.892 46.4793 159.659 46.4793C160.809 46.4793 161.767 46.096 162.438 45.3293C163.109 44.5626 163.492 43.6043 163.492 42.2626C163.492 41.0168 163.109 39.9626 162.438 39.196C161.767 38.4293 160.809 38.046 159.659 38.046C158.892 38.1418 158.221 38.3335 157.646 38.7168Z" fill="white"/>
<path d="M180.646 37.279C181.509 38.2374 181.988 39.579 181.988 41.304V48.6832H179.4V41.5915C179.4 40.4415 179.113 39.579 178.538 39.004C177.963 38.429 177.196 38.0457 176.142 38.0457C175.088 38.0457 174.225 38.3332 173.65 39.004C172.979 39.6749 172.692 40.6332 172.692 41.9749V48.6832H170.104V31.7207H172.692V38.8124C173.075 37.854 173.554 37.0874 174.417 36.6082C175.279 36.129 176.142 35.8415 177.196 35.8415C178.634 35.8415 179.784 36.3207 180.646 37.279Z" fill="white"/>
<path d="M186.588 31.2419C186.876 30.9544 187.259 30.7627 187.834 30.7627C188.313 30.7627 188.792 30.9544 189.08 31.2419C189.367 31.5294 189.559 31.9127 189.559 32.3919C189.559 32.871 189.367 33.1585 189.08 33.446C188.792 33.7335 188.313 33.8294 187.834 33.8294C187.355 33.8294 186.876 33.7335 186.588 33.446C186.301 33.1585 186.109 32.7752 186.109 32.3919C186.109 31.9127 186.205 31.5294 186.588 31.2419ZM189.08 36.0335V48.6835H186.492V36.0335H189.08Z" fill="white"/>
<path d="M203.359 37.1835C204.413 38.046 205.084 39.196 205.371 40.7293H202.592C202.4 39.9626 202.113 39.2918 201.442 38.8126C200.867 38.3335 200.1 38.1418 199.238 38.1418C198.184 38.1418 197.417 38.5251 196.746 39.196C196.075 39.8668 195.692 40.921 195.692 42.3585C195.692 43.796 196.075 44.7543 196.746 45.521C197.417 46.2876 198.279 46.5751 199.238 46.5751C200.1 46.5751 200.867 46.3835 201.442 45.9043C202.017 45.4251 202.4 44.8501 202.592 43.9876H205.371C205.084 45.521 204.413 46.671 203.359 47.5335C202.304 48.396 200.963 48.8751 199.334 48.8751C198.088 48.8751 197.034 48.5876 196.075 48.1085C195.117 47.6293 194.35 46.8626 193.871 45.8085C193.296 44.8501 193.104 43.7001 193.104 42.3585C193.104 41.0168 193.392 39.8668 193.871 38.9085C194.446 37.9501 195.117 37.1835 196.075 36.6085C197.034 36.1293 198.088 35.8418 199.334 35.8418C200.867 35.8418 202.304 36.321 203.359 37.1835Z" fill="white"/>
<path d="M217.255 36.7043C218.021 37.2793 218.596 38.046 218.98 39.0043V36.0335H221.567V48.6835H218.98V45.7126C218.596 46.671 218.021 47.4376 217.255 48.0126C216.488 48.5876 215.434 48.8751 214.284 48.8751C213.134 48.8751 212.175 48.5876 211.313 48.1085C210.45 47.6293 209.78 46.8626 209.3 45.8085C208.821 44.8501 208.534 43.7001 208.534 42.3585C208.534 41.0168 208.821 39.8668 209.3 38.9085C209.78 37.9501 210.45 37.1835 211.313 36.6085C212.175 36.1293 213.134 35.8418 214.284 35.8418C215.53 35.8418 216.488 36.1293 217.255 36.7043ZM212.367 39.2918C211.696 40.0585 211.313 41.0168 211.313 42.3585C211.313 43.7001 211.696 44.6585 212.367 45.4251C213.038 46.1918 213.996 46.5751 215.146 46.5751C215.913 46.5751 216.584 46.3835 217.159 46.096C217.734 45.7126 218.213 45.2335 218.5 44.6585C218.788 44.0835 218.98 43.3168 218.98 42.4543C218.98 41.5918 218.788 40.921 218.5 40.2501C218.117 39.5793 217.734 39.1001 217.159 38.8126C216.584 38.4293 215.913 38.3335 215.146 38.3335C213.996 38.1418 213.038 38.5251 212.367 39.2918Z" fill="white"/>
<path d="M228.754 31.7207V48.779H226.167V31.7207H228.754Z" fill="white"/>
<path d="M65.8376 25.1087H58.9376L57.6918 28.6546H54.9126L60.8543 12.6504H63.8251L69.7668 28.6546H67.0834L65.8376 25.1087ZM65.0709 23.0962L62.3876 15.5254L59.7043 23.0962H65.0709Z" fill="white"/>
<path d="M80.8833 16.9632C81.7458 17.7298 82.3208 18.784 82.5124 20.0298H80.0208C79.9249 19.359 79.6374 18.784 79.1583 18.4007C78.6791 18.0173 78.0083 17.7298 77.2416 17.7298C76.5708 17.7298 76.0916 17.9215 75.7083 18.209C75.3249 18.4965 75.1333 18.9757 75.1333 19.4548C75.1333 19.8382 75.2291 20.2215 75.5166 20.4132C75.8041 20.6048 76.0916 20.8923 76.4749 20.9882C76.8583 21.084 77.4333 21.2757 78.1041 21.4673C79.0624 21.659 79.8291 21.9465 80.4041 22.1382C80.9791 22.3298 81.4583 22.7132 81.9374 23.1923C82.3208 23.6715 82.6083 24.3423 82.6083 25.2048C82.6083 26.259 82.2249 27.1215 81.3624 27.7923C80.4999 28.4632 79.4458 28.7507 78.1041 28.7507C76.5708 28.7507 75.2291 28.3673 74.2708 27.6007C73.3124 26.834 72.8333 25.8757 72.6416 24.6298H75.2291C75.3249 25.3007 75.6124 25.8757 76.1874 26.3548C76.7624 26.7382 77.4333 27.0257 78.2958 27.0257C78.9666 27.0257 79.4458 26.834 79.7333 26.5465C80.1166 26.259 80.3083 25.7798 80.3083 25.3007C80.3083 24.8215 80.2124 24.534 79.9249 24.2465C79.6374 23.959 79.3499 23.7673 78.8708 23.6715C78.4874 23.4798 77.9124 23.384 77.1458 23.1923C76.1874 23.0007 75.5166 22.809 74.9416 22.5215C74.3666 22.234 73.8874 21.9465 73.5041 21.4673C73.1208 20.9882 72.9291 20.3173 72.9291 19.4548C72.9291 18.4007 73.3124 17.5382 74.1749 16.8673C74.9416 16.1965 76.0916 15.909 77.5291 15.909C78.8708 15.8132 80.0208 16.1965 80.8833 16.9632Z" fill="white"/>
<path d="M86.8249 11.1169C87.1124 10.8294 87.4957 10.6377 88.0707 10.6377C88.6457 10.6377 89.029 10.8294 89.3165 11.1169C89.604 11.4044 89.7957 11.7877 89.7957 12.2669C89.7957 12.746 89.604 13.0335 89.3165 13.321C89.029 13.6085 88.5499 13.7044 88.0707 13.7044C87.5915 13.7044 87.1124 13.6085 86.8249 13.321C86.5374 13.0335 86.3457 12.6502 86.3457 12.2669C86.3457 11.7877 86.4415 11.4044 86.8249 11.1169ZM89.3165 15.9085V28.5585H86.729V15.9085H89.3165Z" fill="white"/>
<path d="M101.871 16.675C102.637 17.25 103.212 18.0167 103.596 18.975V16.0042H106.183V28.6542H103.596V25.6833C103.212 26.6417 102.637 27.4083 101.871 27.9833C101.104 28.5583 100.05 28.8458 98.8999 28.8458C97.7499 28.8458 96.7916 28.5583 95.9291 28.0792C95.0666 27.6 94.3957 26.8333 93.9166 25.7792C93.4374 24.8208 93.1499 23.6708 93.1499 22.3292C93.1499 20.9875 93.4374 19.8375 93.9166 18.8792C94.3957 17.9208 95.0666 17.1542 95.9291 16.5792C96.7916 16.1 97.7499 15.8125 98.8999 15.8125C100.146 15.8125 101.104 16.1 101.871 16.675ZM96.9832 19.1667C96.3124 19.9333 95.9291 20.8917 95.9291 22.2333C95.9291 23.575 96.3124 24.5333 96.9832 25.3C97.6541 26.0667 98.6124 26.45 99.7624 26.45C100.529 26.45 101.2 26.2583 101.775 25.9708C102.35 25.6833 102.829 25.1083 103.117 24.5333C103.5 23.8625 103.596 23.1917 103.596 22.3292C103.596 21.4667 103.404 20.7958 103.117 20.125C102.733 19.4542 102.35 18.975 101.775 18.6875C101.2 18.3042 100.529 18.2083 99.7624 18.2083C98.6124 18.1125 97.6541 18.4958 96.9832 19.1667Z" fill="white"/>
<path d="M121.421 17.1543C122.284 18.1126 122.763 19.4543 122.763 21.1793V28.5585H120.175V21.4668C120.175 20.3168 119.888 19.4543 119.313 18.8793C118.738 18.3043 117.971 17.921 116.917 17.921C115.863 17.921 115 18.2085 114.425 18.8793C113.754 19.5501 113.467 20.5085 113.467 21.8501V28.5585H110.879V15.9085H113.467V18.6876C113.85 17.7293 114.329 16.9626 115.192 16.4835C115.959 16.0043 116.917 15.7168 117.971 15.7168C119.313 15.7168 120.559 16.196 121.421 17.1543Z" fill="white"/>
</svg>
