<svg width="18" height="18" viewBox="0 0 18 18" fill="none" xmlns="http://www.w3.org/2000/svg">
<g clip-path="url(#clip0_482_195)">
<path d="M16.3079 13.9822C16.3068 13.7475 16.2593 13.5154 16.1682 13.2992C16.077 13.0829 15.9441 12.8868 15.7769 12.7222L14.2469 11.2048C13.9122 10.8716 13.4591 10.6845 12.9869 10.6846C12.7516 10.6872 12.5192 10.7362 12.303 10.8289C12.0868 10.9215 11.891 11.056 11.7269 11.2246L10.9403 12.0202C10.6739 12.166 9.23928 11.4964 7.89468 10.1644C6.55008 8.83239 5.84988 7.37979 5.98848 7.12419L6.78048 6.32499C7.1165 5.98601 7.30413 5.52745 7.3021 5.05015C7.30008 4.57285 7.10856 4.1159 6.76968 3.77979L5.24148 2.26419C4.9018 1.93056 4.445 1.74319 3.96888 1.74219C3.73361 1.74456 3.50114 1.7935 3.28488 1.88618C3.06862 1.97886 2.87285 2.11345 2.70888 2.28219L1.01688 3.97959C0.31668 4.67979 0.39588 6.03519 1.24188 7.77759C2.03208 9.39759 3.40188 11.2372 5.11548 12.931C7.60308 15.397 10.7405 17.4598 12.7439 17.4598C12.9925 17.4725 13.241 17.4347 13.4746 17.3486C13.7081 17.2626 13.9219 17.1302 14.1029 16.9594L15.7877 15.2602C15.9542 15.0918 16.0858 14.8923 16.1751 14.673C16.2644 14.4537 16.3095 14.219 16.3079 13.9822ZM15.2765 14.7472L13.5917 16.4464C12.6755 17.3698 9.17988 15.9442 5.62308 12.4198C3.97068 10.7818 2.64408 9.02139 1.88988 7.46259C1.20768 6.05859 1.07268 4.94259 1.52988 4.48539L3.21468 2.78619C3.41585 2.58381 3.68893 2.46927 3.97428 2.46759C4.11499 2.46736 4.25436 2.49491 4.3844 2.54866C4.51444 2.6024 4.63259 2.68129 4.73208 2.78079L6.26208 4.29639C6.46268 4.49866 6.57524 4.77201 6.57524 5.05689C6.57524 5.34177 6.46268 5.61511 6.26208 5.81739L5.47008 6.61839C5.12268 6.96759 5.19648 7.59939 5.69148 8.49579C6.14713 9.28862 6.70915 10.0154 7.36188 10.6558C8.00879 11.3042 8.74163 11.8608 9.53988 12.31C10.4399 12.796 11.0735 12.8662 11.4209 12.517L12.2129 11.716C12.414 11.5136 12.6871 11.3991 12.9725 11.3974C13.2556 11.3981 13.527 11.5099 13.7285 11.7088L15.2585 13.2262C15.4591 13.4285 15.5716 13.7018 15.5716 13.9867C15.5716 14.2716 15.4591 14.5449 15.2585 14.7472H15.2765Z" fill="white"/>
<path d="M17.1001 8.94922C17.1956 8.94922 17.2872 8.91129 17.3547 8.84378C17.4222 8.77626 17.4601 8.6847 17.4601 8.58922C17.4577 6.46015 16.611 4.41893 15.1057 2.91328C13.6004 1.40763 11.5594 0.560476 9.43031 0.557617C9.33483 0.557617 9.24327 0.595546 9.17575 0.663059C9.10824 0.730572 9.07031 0.822139 9.07031 0.917617C9.07031 1.0131 9.10824 1.10466 9.17575 1.17218C9.24327 1.23969 9.33483 1.27762 9.43031 1.27762C11.3686 1.28 13.2267 2.05115 14.5971 3.42188C15.9675 4.7926 16.7382 6.65096 16.7401 8.58922C16.7401 8.6847 16.778 8.77626 16.8456 8.84378C16.9131 8.91129 17.0046 8.94922 17.1001 8.94922Z" fill="white"/>
<path d="M14.1589 8.59005C14.1589 8.68553 14.1968 8.77709 14.2644 8.84461C14.3319 8.91212 14.4234 8.95005 14.5189 8.95005C14.6144 8.95005 14.706 8.91212 14.7735 8.84461C14.841 8.77709 14.8789 8.68553 14.8789 8.59005C14.8775 7.14526 14.303 5.76003 13.2816 4.73825C12.2601 3.71646 10.8751 3.14155 9.43031 3.13965C9.33483 3.13965 9.24327 3.17758 9.17575 3.24509C9.10824 3.3126 9.07031 3.40417 9.07031 3.49965C9.07031 3.59513 9.10824 3.68669 9.17575 3.75421C9.24327 3.82172 9.33483 3.85965 9.43031 3.85965C10.6841 3.86155 11.886 4.3606 12.7725 5.24736C13.6589 6.13412 14.1575 7.33622 14.1589 8.59005Z" fill="white"/>
<path d="M9.07031 6.0807C9.07031 6.17618 9.10824 6.26775 9.17575 6.33526C9.24327 6.40277 9.33483 6.4407 9.43031 6.4407C9.99913 6.44401 10.5437 6.67157 10.9457 7.07396C11.3478 7.47634 11.5749 8.02108 11.5777 8.5899C11.5777 8.68538 11.6156 8.77695 11.6832 8.84446C11.7507 8.91197 11.8422 8.9499 11.9377 8.9499C12.0332 8.9499 12.1248 8.91197 12.1923 8.84446C12.2598 8.77695 12.2977 8.68538 12.2977 8.5899C12.2949 7.83013 11.9919 7.10226 11.4548 6.56485C10.9178 6.02743 10.1901 5.72402 9.43031 5.7207C9.33483 5.7207 9.24327 5.75863 9.17575 5.82614C9.10824 5.89366 9.07031 5.98522 9.07031 6.0807Z" fill="white"/>
</g>
<defs>
<clipPath id="clip0_482_195">
<rect width="18" height="18" fill="white"/>
</clipPath>
</defs>
</svg>
