<svg width="16" height="16" viewBox="0 0 16 16" fill="none" xmlns="http://www.w3.org/2000/svg">
<path d="M15.9083 2.94902C15.8268 2.86756 15.6911 2.8404 15.5824 2.86756L15.0393 3.05767C15.3652 2.67748 15.5824 2.27011 15.7182 1.88992C15.7725 1.75413 15.7454 1.64551 15.6639 1.56402C15.5824 1.48256 15.4466 1.45539 15.338 1.50969C14.5776 1.83559 13.9258 2.10716 13.3826 2.27008C13.3826 2.29725 13.3555 2.27008 13.3283 2.27008C12.8938 2.02567 11.8347 1.48252 11.0743 1.48252C9.14609 1.50969 7.59813 3.13913 7.59813 5.12161V5.23024C4.77377 4.68709 3.22581 3.87236 1.54204 2.10713L1.27053 1.83556L1.10758 2.16146C0.184233 3.92669 0.836005 5.52897 1.89514 6.61527C1.40632 6.53381 1.08042 6.37086 0.781677 6.12645C0.673054 6.04499 0.537267 6.01783 0.40148 6.09929C0.292856 6.15361 0.238529 6.31653 0.265693 6.45232C0.64589 7.7287 1.5964 8.7607 2.62837 9.38531C2.13955 9.38531 1.73219 9.33098 1.32483 9.05941C1.2162 9.00508 1.05325 9.00508 0.944628 9.08657C0.836005 9.16806 0.781677 9.30382 0.836005 9.4396C1.32483 10.8246 2.27534 11.5579 3.79616 11.748C3.0086 12.2097 1.97663 12.5899 0.374347 12.617C0.211397 12.617 0.0756095 12.7257 0.0213135 12.8614C-0.0330139 13.0244 0.0213135 13.1602 0.129937 13.2688C1.10761 14.0564 3.28017 14.5181 5.96875 14.5181C10.7484 14.5181 14.6591 10.2544 14.6591 5.01299V4.93153C15.2566 4.63279 15.7454 4.06248 15.9898 3.27492C16.0169 3.16627 15.9898 3.03048 15.9083 2.94902ZM14.2789 4.49697L14.1159 4.5513V5.01299C14.1159 9.95562 10.4497 13.9749 5.96872 13.9749C3.49739 13.9749 1.84081 13.5675 0.944628 13.133C2.81848 12.9972 3.90478 12.3998 4.74667 11.748L5.4256 11.2592H4.61088C3.06293 11.2592 2.11242 10.8246 1.56927 9.79267C2.05809 9.95562 2.57407 9.95562 3.14439 9.92846C3.36163 9.90129 3.57891 9.90129 3.79616 9.90129L3.87762 9.35814C2.84565 9.05941 1.62356 8.13606 1.02609 6.88684C1.56924 7.13125 2.16668 7.18558 2.70983 7.18558H3.55172L2.87281 6.69673C2.3025 6.28937 0.618758 4.85004 1.43348 2.78607C3.17155 4.49697 4.82816 5.28453 7.81544 5.82768L8.14134 5.88201V5.12161C8.14134 3.43787 9.44489 2.05284 11.0743 2.02567C11.6989 1.99851 12.7309 2.56882 13.0296 2.73177C13.1926 2.81323 13.3555 2.8404 13.5185 2.7861C13.9258 2.65031 14.4147 2.4602 14.9578 2.24295C14.7134 2.65031 14.3875 3.03051 13.953 3.38357C13.8444 3.46503 13.8172 3.62799 13.8715 3.76377C13.9259 3.89956 14.0888 3.95389 14.2246 3.89956L15.2837 3.54653C15.0936 3.89953 14.7948 4.30689 14.2789 4.49697Z" fill="white"/>
</svg>
