<?xml version="1.0" encoding="utf-8"?>
<!-- Generator: Adobe Illustrator 26.0.1, SVG Export Plug-In . SVG Version: 6.00 Build 0)  -->
<svg version="1.1" id="Layer_1" xmlns="http://www.w3.org/2000/svg" xmlns:xlink="http://www.w3.org/1999/xlink" x="0px" y="0px"
	 viewBox="0 0 100 100" style="enable-background:new 0 0 100 100;" xml:space="preserve">
<style type="text/css">
	.st0{fill:#010101;}
</style>
<g>
	<path class="st0" d="M47.6,82.1c0,0.2-0.2,0.4-0.2,0.6c0,0.2,0,0.4,0,0.7c-0.8-0.2-1.8-0.6-3.3-0.8l-0.5,3.1l1.5,0.2
		c0.7,0.1,1.2,0.2,1.8,0.2c0,0.2-0.1,0.4-0.2,0.6c0,0.2,0,0.4,0,0.7c-0.5-0.2-1.1-0.3-1.8-0.5l-1.5-0.2l-0.6,3.7
		c1.5,0.2,2.5,0.3,3.3,0.3c0,0.2-0.1,0.4-0.2,0.6c0,0.2,0,0.4,0,0.7l-5.5-0.9l1.7-9.8L47.6,82.1z"/>
	<path class="st0" d="M58.1,89.8l-0.2,1.3c-0.9,0.5-1.9,0.8-2.8,0.9c-3.1,0.3-5.6-1.4-5.9-4.3c-0.4-3.8,2.1-5.8,5.2-6.1
		c0.9-0.1,2.1,0.1,3,0.4c-0.1,0.5-0.1,1-0.2,1.6H57c-0.6-0.8-1.6-1.2-2.5-1.1c-2.4,0.2-3.2,2.7-3,4.8c0.2,2.5,1.7,4.1,3.9,3.9
		c0.9-0.1,1.9-0.7,2.5-1.4L58.1,89.8z"/>
	<g>
		<path class="st0" d="M37.6,57.6l0.7,1.8l-2-0.4L37.6,57.6z"/>
		<path class="st0" d="M54.5,60.6c-0.4-0.3-0.8-0.5-1.5-0.7c-0.7-0.1-1.2-0.1-1.7,0.1c-0.4,0.2-0.7,0.5-0.8,1
			c-0.1,0.4,0,0.8,0.4,1.2c0.4,0.3,0.9,0.5,1.5,0.7c0.7,0.1,1.2,0.1,1.7-0.1c0.4-0.2,0.7-0.5,0.8-1C55,61.3,54.9,61,54.5,60.6z
			 M54.5,60.6c-0.4-0.3-0.8-0.5-1.5-0.7c-0.7-0.1-1.2-0.1-1.7,0.1c-0.4,0.2-0.7,0.5-0.8,1c-0.1,0.4,0,0.8,0.4,1.2
			c0.4,0.3,0.9,0.5,1.5,0.7c0.7,0.1,1.2,0.1,1.7-0.1c0.4-0.2,0.7-0.5,0.8-1C55,61.3,54.9,61,54.5,60.6z M47,50.8
			c-8-8.4-8.1-18.4-3-27.6L37.2,22l-7.5,42.5l34.1,6L66,57.8C66,57.8,55,59.1,47,50.8z M39,61.1l-0.4-0.9l-3-0.5L35,60.4l-1.8-0.3
			l3.6-3.6l1.9,0.4l2.2,4.6L39,61.1z M48.4,59.3l-2.4-0.4l-0.6,3.4l-1.7-0.3l0.6-3.4l-2.4-0.4l0.1-0.7l6.6,1.1L48.4,59.3z
			 M56.6,62.1c-0.1,0.8-0.6,1.2-1.5,1.5c-0.7,0.2-1.6,0.2-2.7,0c-1.1-0.2-2-0.5-2.6-0.9c-0.8-0.5-1.1-1.2-0.9-1.9
			c0.1-0.8,0.7-1.2,1.5-1.5c0.7-0.2,1.6-0.2,2.7,0c1.1,0.2,2,0.5,2.6,1C56.5,60.7,56.8,61.4,56.6,62.1z M63.3,65.4l-5.7-1l0.7-4.1
			l1.7,0.3l-0.6,3.4l4,0.7L63.3,65.4z M53,59.9c-0.7-0.1-1.2-0.1-1.7,0.1c-0.4,0.2-0.7,0.5-0.8,1c-0.1,0.4,0,0.8,0.4,1.2
			c0.4,0.3,0.9,0.5,1.5,0.7c0.7,0.1,1.2,0.1,1.7-0.1c0.4-0.2,0.7-0.5,0.8-1c0.1-0.4,0-0.8-0.4-1.2C54.2,60.3,53.7,60.1,53,59.9z"/>
		<path class="st0" d="M66.4,55.8c0,0-9.6-0.1-14.5-9.7c-6.6-13.2,7.2-20.3,7.2-20.3L71.3,28L66.4,55.8z"/>
		<path class="st0" d="M57.3,8.6c-22.8-4-44.6,11.3-48.6,34.1c-4,22.8,11.3,44.6,34.1,48.7c22.8,4,44.6-11.3,48.6-34.1
			c0.4-2.5,0.7-4.9,0.7-7.3C92,30,77.6,12.2,57.3,8.6z M88.7,56.8c-3.8,21.3-24.2,35.7-45.5,31.9C21.8,84.9,7.6,64.5,11.3,43.1
			S35.5,7.5,56.9,11.3C78.2,15,92.4,35.5,88.7,56.8z"/>
		<path class="st0" d="M22.9,57.9l-0.8-3l-8.5,2.3c0.1,0.3,0.2,0.6,0.3,0.9c0.1,0.3,0.1,0.6,0.2,1l3.8-1c0.6,2.3,1.5,3.7,3.8,3.1
			C22.9,60.8,23.3,59.6,22.9,57.9z M20.7,59.3c-0.8,0.2-1.5,0.1-2-0.7c-0.1-0.2-0.2-0.5-0.3-0.8l3.4-0.9l0.2,0.8
			C22.2,58.3,21.7,59,20.7,59.3z"/>
		<path class="st0" d="M25.5,64.1l-1.4-2.4l-7.6,4.5c0.2,0.3,0.4,0.5,0.5,0.8c0.2,0.3,0.3,0.6,0.4,0.9l3.6-2.1l0,0.1
			c-0.3,0.5-0.6,1.1-0.8,1.5L18.8,70c0.2,0.3,0.4,0.6,0.7,1c0.2,0.4,0.4,0.7,0.5,1.1l0.4-0.8c0.7-1.3,1.3-2.6,1.9-3.8
			c0.8,0.9,1.9,1.2,3,0.6c0.8-0.4,1.1-1.1,1-1.9C26.3,65.4,25.8,64.6,25.5,64.1z M24.6,66c-0.2,0.2-0.4,0.3-0.5,0.4
			c-1.1,0.7-2,0.4-2.6-0.8l3-1.8C24.9,64.5,25.5,65.2,24.6,66z"/>
		<path class="st0" d="M31.7,71.3c-2.4-2.1-5.2-1.8-6.9,0.1c-1.9,2.2-1.6,4.7,0.6,6.6c2.4,2.1,5.3,1.7,6.9-0.2
			C33.6,76.3,34.4,73.7,31.7,71.3z M30.8,76.3c-1.4,1.6-3.4,2.5-4.9,1.2c-1.5-1.3-0.8-3.1,0.3-4.4c1.9-2.2,3.6-2.5,5-1.3
			C32.5,73.1,31.9,75,30.8,76.3z"/>
		<path class="st0" d="M36.2,84.5c-0.3-0.1-0.6-0.3-0.8-0.4c-0.3-0.1-0.6-0.2-0.9-0.3l3.1-7.3c-0.8-0.4-1.6-0.6-2.3-0.8
			c0.1-0.2,0.2-0.3,0.3-0.5c0.1-0.2,0.1-0.4,0.2-0.5l6.1,2.7c-0.1,0.2-0.2,0.3-0.3,0.5c-0.1,0.2-0.1,0.4-0.2,0.5
			c-0.7-0.4-1.3-0.8-2-1.1L36.2,84.5z"/>
		<path class="st0" d="M64.5,84.2c-0.3,0.1-0.6,0.2-0.9,0.3c-0.3,0.1-0.6,0.3-0.9,0.4l-2.9-7.4c-0.8,0.4-1.6,0.7-2.2,1.1
			c0-0.2-0.1-0.4-0.1-0.5c0-0.2-0.2-0.3-0.3-0.5l6.2-2.4c0,0.2,0.1,0.4,0.1,0.5c0.1,0.2,0.2,0.4,0.3,0.5c-0.8,0.2-1.5,0.4-2.2,0.7
			L64.5,84.2z"/>
		<path class="st0" d="M68.5,71.6c0.1,0.2,0.2,0.4,0.3,0.5c0.1,0.1,0.3,0.3,0.4,0.4c-0.7,0.4-1.5,0.8-2.5,1.6l1.6,2.3l1.1-0.8
			c0.5-0.4,0.9-0.7,1.2-1c0.1,0.2,0.2,0.4,0.3,0.5c0.1,0.1,0.3,0.3,0.4,0.4c-0.4,0.2-0.9,0.5-1.4,0.8L68.7,77l1.9,2.7
			c1.1-0.8,1.7-1.3,2.3-1.9c0.1,0.2,0.2,0.4,0.3,0.5c0.1,0.1,0.3,0.3,0.4,0.4l-4,2.8l-5-7.2L68.5,71.6z"/>
		<path class="st0" d="M78.2,66.7c-1.7-1.3-3.9-1.6-5.7,0.5l-2.7,3.4l6.9,5.4l2.3-2.8C80.5,71.1,80.5,68.5,78.2,66.7z M77.9,73.2
			L77.3,74l-5.7-4.5l0.8-1c1.1-1.4,2.6-1.7,4.5-0.2C79.2,70.2,79,71.8,77.9,73.2z"/>
	</g>
</g>
</svg>
