<?xml version="1.0" encoding="utf-8"?>
<!-- Generator: Adobe Illustrator 26.0.1, SVG Export Plug-In . SVG Version: 6.00 Build 0)  -->
<svg version="1.1" id="Layer_1" xmlns="http://www.w3.org/2000/svg" xmlns:xlink="http://www.w3.org/1999/xlink" x="0px" y="0px"
	 viewBox="0 0 100 100" style="enable-background:new 0 0 100 100;" xml:space="preserve">
<style type="text/css">
	.st0{fill:url(#SVGID_1_);}
	.st1{fill:#00A4E8;stroke:#00A4E8;stroke-width:0.9904;}
	.st2{fill:#EFEFF1;}
	.st3{fill:url(#SVGID_00000072273745694566620680000012957788163870289794_);}
	.st4{fill:#00A4E8;}
	.st5{opacity:0.16;fill:#FFFFFF;enable-background:new    ;}
</style>
<g>
	
		<radialGradient id="SVGID_1_" cx="-504.5114" cy="443.3161" r="0.9999" gradientTransform="matrix(77.9999 0 0 -81.6695 39400.8828 36214.4453)" gradientUnits="userSpaceOnUse">
		<stop  offset="0" style="stop-color:#FFA900"/>
		<stop  offset="0.517" style="stop-color:#ED6A00"/>
		<stop  offset="1" style="stop-color:#8D190F"/>
	</radialGradient>
	<path class="st0" d="M87.5,39C87.5,16.5,70.3,9.2,49,9.2c-21.3,0-38.4,7.2-38.4,29.8c0,22.5,17.2,50.8,38.4,50.8S87.5,61.5,87.5,39
		z"/>
	<path class="st1" d="M91.1,38.2c0-24.6-18.8-32.6-41.9-32.6s-42.1,8-42.1,32.6s18.8,55.6,42.1,55.6S91.1,62.8,91.1,38.2z"/>
	<path class="st2" d="M89.5,38.4c0-23.6-18.1-31.3-40.4-31.3c-22.3,0-40.4,7.7-40.4,31.3s18.1,53.4,40.4,53.4
		C71.4,91.8,89.5,62.1,89.5,38.4z"/>
	
		<radialGradient id="SVGID_00000041988222780044115630000000497497485522212487_" cx="-504.9482" cy="443.3636" r="0.9999" gradientTransform="matrix(83.6296 0 0 -82.6077 42277.6641 36633.9141)" gradientUnits="userSpaceOnUse">
		<stop  offset="0" style="stop-color:#B08BBD"/>
		<stop  offset="0.517" style="stop-color:#572478"/>
		<stop  offset="1" style="stop-color:#3C1C63"/>
	</radialGradient>
	<path style="fill:url(#SVGID_00000041988222780044115630000000497497485522212487_);" d="M87.5,38.5C87.5,16,70.3,8.8,49,8.8
		c-21.3,0-38.4,7.2-38.4,29.8S27.8,89.4,49,89.4S87.5,61,87.5,38.5z"/>
	<path class="st4" d="M23.1,31.6c0.5-0.1,1.3-0.2,2.4-0.3c1.4-0.1,2.7-0.2,4.2-0.2c1.2,0,2.5,0.1,3.7,0.3c1.2,0.2,2.3,0.7,3.4,1.3
		c1,0.7,1.9,1.5,2.4,2.6c0.7,1.4,1,3,1,4.5c0,1.4-0.2,2.7-0.8,4.1c-0.4,1-1.1,1.9-2,2.6c-0.9,0.7-1.8,1.1-2.9,1.4
		c-1.1,0.3-2.2,0.4-3.2,0.4c-0.4,0-0.9,0-1.3,0c-0.3,0-0.7-0.1-1-0.1v8c-0.5,0.1-1.1,0.2-1.6,0.2c-0.4,0-1,0.1-1.3,0.1
		c-1,0-2-0.1-3-0.3L23.1,31.6z M29,43.4c0.2,0.1,0.4,0.1,0.5,0.1c0.3,0,0.5,0,0.9,0c1.8,0.1,3.2-1.1,3.4-2.9c0-0.2,0-0.4,0-0.7
		c0-0.5-0.1-1.2-0.3-1.8c-0.2-0.4-0.4-0.9-0.8-1.1c-0.3-0.3-0.8-0.5-1.2-0.7c-0.4-0.1-1-0.1-1.4-0.1h-0.4c-0.2,0-0.3,0-0.5,0
		L29,43.4z"/>
	<path class="st4" d="M46.3,37h-5.8c-0.4-1.8-0.4-3.6,0-5.4h17.7c0.1,0.5,0.1,1,0.2,1.4c0,0.4,0.1,0.9,0.1,1.2
		c0,0.9-0.1,1.9-0.3,2.7h-5.8v19.3c-1,0.2-2,0.3-3.1,0.3c-1,0-2.1-0.1-3.1-0.3L46.3,37z"/>
	<path class="st4" d="M68.3,41.3c1,0.4,1.9,0.8,2.6,1.2c0.8,0.3,1.4,0.9,2,1.4s1,1.3,1.3,2.1c0.7,2,0.5,4.2-0.2,6.1
		c-0.4,1-1.1,1.9-1.9,2.5c-0.9,0.8-2,1.3-3.1,1.6c-1.3,0.4-2.7,0.5-4.2,0.5c-1.3,0-2.5-0.1-3.7-0.3c-1.2-0.2-2.4-0.7-3.5-1.1
		c0.1-0.9,0.2-1.8,0.4-2.5c0.2-0.9,0.5-1.9,0.9-2.7c1.8,0.9,3.6,1.3,5.5,1.4c1,0,1.9-0.1,2.7-0.5c0.7-0.3,1.1-1.1,1-1.9
		c0-0.3-0.1-0.7-0.2-1c-0.1-0.2-0.3-0.4-0.5-0.7c-0.2-0.2-0.5-0.3-0.8-0.4c-0.3-0.1-0.5-0.2-0.9-0.3l-2-0.8
		c-0.8-0.3-1.5-0.7-2.3-1.1c-0.7-0.4-1.2-0.9-1.8-1.4c-0.4-0.5-0.9-1.2-1.1-2c-0.3-0.9-0.4-1.8-0.4-2.6c0-1.1,0.2-2.2,0.7-3.3
		c0.4-0.9,1-1.8,1.8-2.4c0.8-0.7,1.8-1.2,2.7-1.5c1.2-0.3,2.3-0.5,3.5-0.5c1.1,0,2.3,0.1,3.4,0.3c1.2,0.2,2.4,0.5,3.5,1
		c-0.1,0.8-0.3,1.6-0.5,2.4c-0.2,0.9-0.5,1.6-0.9,2.5c-0.5-0.2-1.3-0.5-2.1-0.8c-1-0.3-2-0.4-3-0.4c-0.3,0-0.7,0-1.1,0.1
		c-0.3,0.1-0.7,0.2-0.9,0.3c-0.2,0.1-0.4,0.3-0.7,0.7c-0.2,0.3-0.2,0.7-0.2,1c0,0.5,0.2,1.1,0.7,1.5c0.4,0.3,1,0.7,1.5,0.9
		L68.3,41.3z"/>
	<path class="st5" d="M80,17.4C72.2,9.6,58.8,7.2,49.2,7.2c-20.9,0-37.6,7.6-37.3,30.3c0.1,11.1,5.9,25.3,13.7,35.7
		C30.6,44.5,55.4,27.9,80,17.4z"/>
</g>
</svg>
